<?xml version="1.0" standalone="no"?>
<!DOCTYPE svg PUBLIC "-//W3C//DTD SVG 20010904//EN"
 "http://www.w3.org/TR/2001/REC-SVG-20010904/DTD/svg10.dtd">
<svg version="1.0" xmlns="http://www.w3.org/2000/svg"
 width="2016.000000pt" height="2016.000000pt" viewBox="0 0 2016.000000 2016.000000"
 preserveAspectRatio="xMidYMid meet">
<metadata>
Created by potrace 1.15, written by Peter Selinger 2001-2017
</metadata>
<g transform="translate(0.000000,2016.000000) scale(0.100000,-0.100000)"
fill="#000000" stroke="none">
<path d="M6020 16432 c-13 -9 -21 -11 -16 -4 10 17 -14 15 -38 -3 -11 -8 -25
-15 -30 -15 -6 0 -4 5 4 10 8 5 11 10 6 10 -6 0 -20 -10 -33 -22 -22 -21 -24
-21 -17 -3 7 17 6 18 -8 7 -9 -7 -20 -12 -24 -11 -5 1 -12 0 -16 -1 -5 -1 -14
-3 -20 -4 -7 -1 -12 -8 -10 -16 3 -12 1 -13 -9 -2 -17 16 -29 15 -29 -3 0 -8
-5 -15 -11 -15 -5 0 -7 6 -3 13 5 8 2 8 -9 -2 -9 -7 -17 -10 -17 -6 0 4 -8 -1
-17 -12 -10 -10 -14 -13 -9 -6 6 10 4 12 -8 7 -9 -3 -16 -11 -16 -16 0 -6 -7
-8 -15 -4 -10 3 -15 -1 -15 -12 0 -15 -2 -15 -10 -2 -8 12 -10 12 -10 -5 0
-17 -2 -17 -10 -5 -6 10 -10 11 -10 3 0 -7 -6 -12 -12 -10 -7 1 -12 -3 -11
-10 2 -8 -4 -10 -14 -6 -10 4 -14 2 -9 -5 3 -6 2 -13 -4 -17 -5 -3 -10 0 -10
7 -1 7 -7 2 -15 -12 -9 -15 -15 -19 -15 -10 0 9 -6 6 -14 -9 -10 -18 -15 -20
-19 -10 -3 8 -6 4 -6 -10 -1 -20 -3 -21 -16 -11 -8 7 -16 10 -16 6 -1 -3 -3
-10 -4 -16 -1 -5 -3 -14 -4 -19 0 -5 -11 -7 -23 -4 -19 4 -20 3 -8 -6 8 -6 10
-11 4 -11 -6 0 -28 -15 -49 -34 -21 -19 -43 -34 -49 -33 -5 1 -11 -4 -12 -10
-1 -7 -2 -17 -3 -22 0 -5 -17 -19 -35 -31 -22 -13 -33 -26 -29 -35 3 -9 -4
-18 -18 -24 -19 -8 -20 -10 -6 -10 17 -1 17 -2 2 -17 -9 -9 -23 -27 -32 -40
-8 -13 -23 -24 -32 -24 -9 0 -12 -3 -6 -8 14 -10 17 -32 4 -32 -5 0 -7 -4 -4
-10 3 -5 -5 -12 -18 -16 -18 -4 -23 -11 -20 -25 4 -13 0 -19 -11 -19 -12 0
-14 -5 -6 -25 7 -19 6 -23 -4 -19 -9 3 -13 -1 -13 -13 1 -11 -4 -17 -12 -15
-12 3 -12 1 -1 -13 7 -9 9 -15 4 -14 -19 3 -28 -2 -16 -9 10 -7 9 -16 -3 -45
-8 -20 -19 -37 -24 -37 -4 0 -6 -12 -4 -27 4 -23 2 -25 -7 -13 -12 16 -11 8 5
-47 4 -14 2 -23 -4 -23 -7 0 -9 -14 -6 -35 2 -20 0 -33 -5 -30 -5 3 -11 1 -14
-4 -4 -5 -2 -12 3 -16 5 -3 7 -15 5 -28 -8 -32 -17 -90 -17 -107 0 -17 9 -75
17 -107 2 -13 0 -25 -5 -28 -5 -4 -7 -11 -3 -16 3 -5 9 -7 14 -4 5 3 7 -10 5
-30 -3 -21 -1 -35 6 -35 6 0 8 -9 4 -22 -16 -56 -17 -64 -5 -48 9 12 11 10 7
-12 -2 -16 0 -28 4 -28 5 0 16 -17 24 -37 12 -29 13 -38 3 -45 -12 -7 -3 -12
16 -9 5 1 3 -5 -4 -14 -11 -14 -11 -16 1 -13 8 2 13 -4 12 -15 0 -12 4 -16 13
-13 10 4 11 0 4 -19 -8 -20 -6 -25 6 -25 11 0 15 -6 11 -19 -3 -14 2 -21 20
-25 13 -4 21 -11 18 -16 -3 -6 -1 -10 4 -10 13 0 10 -22 -4 -32 -6 -5 -3 -8 6
-8 9 0 24 -11 32 -24 9 -13 23 -31 32 -40 15 -15 15 -16 -2 -17 -14 0 -13 -2
6 -10 14 -6 21 -15 18 -24 -4 -9 7 -22 29 -35 18 -12 35 -26 35 -31 1 -5 2
-15 3 -21 0 -7 6 -13 13 -13 6 0 26 -13 45 -28 18 -15 40 -32 48 -37 13 -9 13
-10 0 -11 -8 0 -4 -4 10 -8 14 -4 26 -12 26 -19 3 -23 4 -24 19 -12 13 10 15
9 15 -11 0 -18 3 -20 9 -10 7 11 10 9 16 -9 6 -18 9 -20 16 -9 7 11 10 9 15
-8 4 -14 11 -20 22 -16 11 5 13 3 7 -7 -6 -10 -4 -12 8 -7 10 4 16 2 14 -6 -1
-7 4 -11 11 -9 6 1 12 -3 12 -9 0 -5 5 -7 10 -4 6 3 10 0 10 -7 0 -9 3 -9 10
2 8 13 10 12 10 -3 0 -10 4 -16 9 -12 5 3 13 0 16 -6 4 -5 13 -8 21 -5 7 3 18
-3 23 -12 6 -9 11 -13 11 -8 0 5 8 2 17 -5 11 -10 14 -10 9 -1 -4 6 -2 12 3
12 6 0 11 -7 11 -16 0 -10 6 -14 15 -11 8 4 17 2 20 -4 4 -5 10 -7 15 -4 5 3
11 1 15 -5 4 -6 11 -8 16 -4 5 3 16 0 24 -6 12 -10 15 -10 15 0 0 9 5 8 18 -3
10 -10 23 -17 28 -17 5 0 2 5 -6 10 -8 5 -10 10 -5 10 6 0 21 -7 33 -16 13 -9
32 -14 43 -11 10 3 22 1 25 -4 8 -13 78 -11 93 4 11 10 13 10 7 0 -5 -10 6
-13 43 -13 30 0 51 5 54 13 4 10 6 10 6 0 1 -20 71 -16 94 5 11 9 17 11 13 5
-9 -16 30 -18 39 -3 4 6 15 8 25 5 10 -3 25 1 33 10 18 17 31 20 21 4 -4 -8
-1 -8 12 -1 11 6 22 10 27 11 4 1 8 1 10 2 1 0 11 2 21 4 49 9 66 16 61 25 -3
5 4 7 15 5 11 -2 20 0 20 6 0 5 3 8 8 8 19 -3 33 2 27 10 -3 6 4 8 16 6 15 -3
19 0 15 10 -3 8 -1 15 3 15 5 0 12 -6 14 -12 4 -10 6 -10 6 0 1 7 6 10 11 7 6
-3 10 -1 10 4 0 6 6 10 13 9 6 -2 11 2 10 9 -2 8 4 10 14 6 12 -5 14 -3 8 7
-6 10 -4 12 8 7 10 -3 17 -3 17 2 0 5 10 11 23 15 18 5 20 8 7 16 -12 8 -10
10 10 8 19 -2 25 2 24 15 -2 13 1 15 10 7 15 -12 27 -3 20 14 -3 7 3 19 13 27
16 13 17 12 5 -3 -11 -14 -11 -16 7 -11 12 3 21 10 21 17 0 6 9 17 20 24 12 7
17 18 14 29 -5 15 -4 16 5 3 10 -13 12 -13 21 0 5 8 15 15 22 15 7 0 12 9 10
19 -2 11 1 15 7 11 6 -3 11 -1 11 5 0 6 7 18 15 26 8 9 15 12 15 8 0 -3 7 -1
15 6 16 14 10 34 -7 24 -7 -5 -8 -2 -4 5 5 7 10 10 13 7 3 -3 15 0 26 5 12 7
15 14 9 18 -13 8 41 87 57 83 7 -1 10 2 6 8 -11 17 5 52 21 46 9 -3 12 -1 9 4
-3 6 -1 10 5 10 7 0 8 6 1 19 -12 22 -5 32 17 24 11 -5 14 -2 9 9 -3 9 -3 19
1 23 4 3 7 14 7 23 0 10 6 16 15 14 11 -3 9 3 -5 20 -15 17 -16 19 -2 9 18
-14 20 -11 17 32 -1 18 3 27 12 25 8 -2 12 4 10 15 -2 9 2 17 7 17 6 0 8 7 5
15 -4 8 -1 15 5 15 6 0 11 5 11 11 0 5 -5 7 -11 3 -6 -3 -3 6 7 22 14 21 14
26 3 17 -12 -10 -15 -8 -16 8 -1 11 2 17 7 14 9 -6 22 20 26 50 1 11 5 36 9
55 5 20 4 32 -1 27 -9 -8 -10 -12 -13 -39 -1 -9 -4 -9 -13 0 -8 8 -8 15 1 26
7 8 9 21 5 27 -5 9 -2 10 12 5 14 -5 16 -4 7 4 -7 8 -8 22 -3 41 5 16 5 42 0
58 -5 19 -4 33 3 41 9 8 7 9 -7 4 -14 -5 -17 -4 -12 5 4 6 2 19 -5 27 -9 11
-9 18 -1 26 9 9 12 9 13 0 3 -27 4 -31 13 -39 5 -5 6 7 1 27 -4 19 -8 44 -9
55 -4 30 -17 56 -26 50 -5 -3 -8 3 -7 14 1 16 4 18 16 8 11 -9 11 -4 -3 17
-10 16 -13 25 -7 22 6 -4 11 -2 11 3 0 6 -5 11 -11 11 -6 0 -9 7 -5 15 3 8 1
15 -5 15 -5 0 -9 8 -7 18 2 10 -2 16 -10 14 -9 -2 -13 7 -12 25 3 43 1 46 -17
32 -14 -10 -13 -8 2 9 14 17 16 23 5 20 -9 -2 -15 4 -15 14 0 9 -3 20 -7 23
-4 4 -4 14 -1 23 5 11 2 14 -9 9 -22 -8 -29 2 -17 24 7 13 6 19 -1 19 -6 0 -8
4 -5 10 3 5 0 7 -9 4 -16 -6 -32 29 -21 46 4 6 1 9 -6 8 -16 -4 -70 75 -57 83
10 7 -17 27 -35 27 -5 0 -12 4 -15 8 -4 4 -2 4 5 0 18 -10 25 10 8 24 -8 7
-15 9 -15 6 0 -4 -7 -1 -15 8 -8 8 -15 20 -15 26 0 6 -5 8 -11 5 -6 -4 -9 0
-7 11 2 10 -3 19 -10 19 -7 0 -17 7 -22 15 -9 13 -11 13 -20 0 -9 -12 -10 -12
-8 5 2 12 -2 19 -10 17 -8 -1 -11 2 -7 8 3 5 1 10 -4 10 -6 0 -11 6 -11 14 0
7 -9 16 -21 19 -18 5 -18 3 -7 -11 12 -15 11 -16 -5 -3 -9 7 -16 19 -15 25 2
6 -1 11 -7 11 -5 0 -9 -4 -7 -8 1 -5 -2 -6 -7 -2 -6 3 -8 12 -5 19 6 16 -42
50 -61 42 -9 -3 -12 0 -8 10 4 10 0 12 -13 8 -11 -4 -16 -4 -12 1 12 13 -25
35 -39 23 -9 -8 -15 -4 -22 13 -5 13 -10 18 -10 12 -1 -7 -5 -13 -11 -13 -5 0
-7 7 -4 15 4 10 0 13 -15 10 -12 -2 -19 0 -16 6 6 8 -8 13 -27 10 -5 0 -8 3
-8 8 0 6 -9 8 -20 6 -11 -2 -18 0 -15 5 5 9 -16 17 -56 23 -8 2 -20 6 -26 10
-7 5 -13 6 -13 2 0 -3 -9 -1 -20 5 -17 9 -19 8 -13 -7 4 -14 1 -13 -17 5 -12
13 -29 21 -36 18 -8 -3 -24 0 -34 6 -16 10 -22 10 -32 -2 -7 -9 -12 -13 -11
-11 7 11 -23 31 -46 30 -25 0 -25 0 -3 -9 32 -14 27 -20 -9 -10 -16 5 -37 6
-46 3 -11 -4 -14 -2 -9 5 5 9 -7 12 -44 12 -28 0 -49 -3 -47 -7 3 -5 -8 -9
-24 -10 -17 -1 -27 2 -24 7 10 16 -38 10 -65 -8z m315 -56 c56 -5 199 -37 205
-44 3 -4 14 -8 25 -10 18 -3 103 -40 183 -80 17 -9 32 -20 32 -24 0 -5 7 -8
15 -8 8 0 15 -4 15 -10 0 -5 7 -10 15 -10 8 0 15 -4 15 -10 0 -5 6 -10 13 -10
13 0 164 -132 180 -157 4 -7 20 -25 34 -41 79 -84 183 -287 223 -432 12 -47
25 -92 27 -100 18 -58 18 -322 0 -380 -2 -8 -15 -53 -27 -100 -40 -146 -139
-338 -231 -443 -86 -100 -174 -169 -314 -246 -135 -74 -295 -126 -424 -136
-36 -3 -80 -8 -98 -11 -51 -8 -234 14 -338 41 -114 29 -252 92 -361 166 -110
74 -255 224 -309 320 -51 90 -122 256 -131 304 -3 17 -9 46 -14 65 -29 112
-29 348 0 460 5 19 11 49 14 65 9 53 87 230 137 315 50 83 160 202 254 275 81
62 178 125 194 125 5 0 14 7 21 15 7 9 15 14 17 11 3 -2 37 9 76 26 87 36 89
36 206 54 52 8 95 15 97 16 3 4 201 -1 249 -6z"/>
<path d="M6086 15883 c-2 -3 -20 -6 -39 -8 -19 -2 -49 -10 -66 -19 -28 -15
-30 -15 -24 0 5 14 3 14 -27 -1 -43 -22 -84 -30 -74 -14 4 8 3 9 -5 5 -6 -4
-9 -12 -5 -17 3 -6 0 -9 -7 -7 -8 1 -16 -2 -17 -7 -7 -21 -26 -36 -38 -31 -8
3 -13 0 -11 -6 1 -7 -3 -12 -9 -13 -9 0 -87 -68 -135 -119 -11 -11 -19 -30
-19 -42 0 -13 -13 -33 -31 -48 -17 -14 -28 -30 -24 -36 4 -6 -1 -7 -12 -3 -16
6 -16 4 2 -17 l20 -23 -25 13 -25 13 19 -22 c13 -14 15 -21 6 -21 -7 0 -11 -3
-8 -6 4 -3 0 -21 -8 -40 -16 -38 -6 -44 21 -14 34 38 34 20 -1 -31 -37 -56
-38 -58 -25 -78 6 -10 5 -24 -4 -42 -14 -25 -13 -27 5 -22 16 4 20 0 21 -18 3
-92 22 -179 40 -179 7 0 68 -106 74 -130 9 -30 39 -82 50 -87 8 -3 15 -14 15
-24 0 -15 7 -19 31 -19 16 0 28 -3 25 -8 -5 -8 22 -49 29 -44 13 6 25 0 25
-13 0 -8 9 -15 20 -15 14 0 20 -7 20 -21 0 -19 4 -21 39 -16 28 3 48 -1 70
-14 17 -10 31 -17 31 -15 0 3 13 1 30 -4 18 -5 32 -5 36 1 3 5 38 7 82 3 58
-4 88 -2 121 10 51 19 54 19 47 7 -3 -5 1 -12 10 -15 16 -6 84 29 84 43 0 10
84 43 96 39 15 -4 74 35 74 49 0 7 -5 13 -11 13 -21 0 11 28 56 50 75 37 110
71 107 105 -2 25 4 34 34 53 35 23 35 24 18 43 -19 21 -6 26 16 7 12 -11 12
-10 0 5 -8 11 -10 21 -4 25 5 4 10 16 12 27 1 11 4 38 7 59 3 22 10 43 16 47
7 4 3 12 -12 22 -20 14 -21 18 -8 34 8 10 20 23 27 29 11 8 11 12 -2 23 -10 8
-12 19 -7 34 4 12 6 30 4 39 -5 19 -37 33 -54 22 -8 -4 -8 0 0 15 7 11 16 21
21 21 6 0 10 7 10 15 0 9 -9 15 -22 15 -19 0 -20 2 -8 10 13 8 13 10 1 10 -12
0 -12 3 -3 12 17 17 15 25 -9 31 -15 4 -20 11 -16 21 4 10 1 16 -9 16 -16 0
-34 38 -27 57 3 7 -8 13 -29 15 -23 2 -32 8 -30 19 1 9 -9 21 -24 28 -21 9
-24 15 -16 23 18 18 14 28 -8 28 -11 0 -24 8 -27 18 -4 9 -13 23 -20 30 -7 7
-13 20 -13 28 0 8 -5 12 -10 9 -6 -4 -25 3 -44 14 -35 22 -91 28 -101 11 -8
-13 -25 -13 -25 1 0 5 4 8 8 5 4 -2 13 4 20 15 10 16 9 19 -5 19 -10 0 -33 -4
-50 -9 -21 -6 -55 -6 -95 1 -71 12 -165 18 -172 11z"/>
<path d="M13080 16432 c-13 -9 -21 -11 -16 -4 10 17 -14 15 -38 -3 -11 -8 -25
-15 -30 -15 -6 0 -4 5 4 10 8 5 11 10 6 10 -5 0 -18 -7 -28 -17 -13 -11 -18
-12 -18 -3 0 9 -3 10 -14 1 -8 -6 -18 -11 -22 -10 -5 1 -12 0 -16 -1 -5 -1
-14 -3 -20 -4 -7 -1 -12 -8 -10 -16 3 -12 1 -13 -9 -2 -17 16 -29 15 -29 -3 0
-8 -5 -15 -11 -15 -5 0 -7 6 -3 13 5 8 2 8 -9 -2 -9 -7 -17 -10 -17 -5 0 5 -5
1 -11 -8 -5 -9 -16 -15 -23 -12 -8 3 -17 0 -21 -5 -3 -6 -11 -9 -16 -6 -5 4
-9 -2 -9 -12 0 -15 -2 -16 -10 -3 -8 12 -10 12 -10 -5 0 -17 -2 -17 -10 -5 -6
10 -10 11 -10 3 0 -7 -6 -12 -12 -10 -7 1 -12 -3 -11 -10 2 -7 -4 -10 -12 -7
-10 4 -15 0 -15 -12 0 -15 -2 -16 -9 -5 -7 11 -10 9 -16 -9 -5 -16 -9 -19 -15
-10 -6 9 -10 6 -15 -10 -6 -18 -9 -20 -16 -9 -6 10 -9 8 -9 -10 0 -20 -2 -21
-15 -11 -8 7 -16 10 -16 6 -1 -3 -3 -10 -4 -16 -1 -5 -3 -14 -4 -19 0 -5 -11
-7 -23 -4 -19 4 -20 3 -8 -6 8 -6 10 -11 4 -11 -6 0 -28 -15 -49 -34 -21 -19
-43 -34 -49 -33 -5 1 -11 -4 -12 -10 -1 -7 -2 -17 -3 -22 0 -5 -17 -18 -36
-30 -21 -12 -33 -26 -29 -34 3 -8 -5 -18 -18 -25 -18 -8 -19 -11 -6 -11 16 -1
15 -4 -4 -26 -12 -14 -28 -25 -35 -25 -7 0 -13 -5 -13 -11 0 -5 5 -7 12 -3 7
4 8 3 4 -4 -4 -7 -15 -12 -24 -13 -10 0 -12 -3 -5 -6 9 -3 10 -10 3 -22 -5
-10 -7 -21 -3 -24 3 -3 -6 -9 -21 -13 -14 -3 -23 -10 -20 -15 3 -5 -1 -9 -8
-9 -9 0 -9 -3 2 -10 13 -8 13 -10 -2 -10 -11 0 -15 -6 -11 -20 3 -11 0 -20 -6
-20 -5 0 -8 -7 -5 -15 4 -10 0 -15 -12 -15 -9 0 -14 -3 -11 -7 4 -3 2 -12 -4
-20 -8 -9 -8 -13 -1 -13 14 0 -6 -62 -23 -72 -7 -4 -10 -20 -8 -35 4 -22 2
-25 -6 -13 -13 19 -14 14 -2 -27 6 -19 6 -35 1 -38 -5 -3 -8 -21 -6 -40 1 -18
0 -34 -3 -33 -19 2 -22 -4 -11 -17 11 -13 10 -14 -4 -9 -12 5 -16 0 -16 -16 0
-20 2 -21 17 -9 14 12 16 12 8 0 -8 -13 -18 -69 -18 -101 0 -32 10 -88 18
-101 8 -12 6 -12 -8 0 -15 12 -17 11 -17 -9 0 -16 4 -21 16 -16 14 5 15 4 4
-9 -11 -13 -8 -19 11 -17 3 1 4 -15 3 -33 -2 -19 1 -37 6 -40 5 -3 5 -19 -1
-38 -12 -41 -11 -46 2 -27 8 12 10 9 6 -13 -2 -15 1 -31 8 -35 17 -10 37 -72
23 -72 -7 0 -7 -4 1 -13 6 -8 8 -17 4 -20 -3 -4 2 -7 11 -7 12 0 16 -5 12 -15
-3 -8 0 -15 5 -15 6 0 9 -9 6 -20 -4 -14 0 -20 11 -20 15 0 15 -2 2 -10 -11
-7 -11 -10 -2 -10 7 0 11 -4 8 -9 -3 -5 6 -12 20 -15 15 -4 24 -10 21 -13 -4
-3 -2 -14 3 -24 7 -12 6 -19 -3 -22 -7 -3 -5 -6 5 -6 9 -1 20 -6 24 -13 4 -7
3 -8 -4 -4 -7 4 -12 2 -12 -3 0 -6 6 -11 13 -11 7 0 23 -11 35 -25 19 -22 20
-25 4 -26 -13 0 -12 -3 6 -11 13 -7 21 -17 18 -25 -4 -8 8 -22 29 -34 19 -12
36 -25 36 -30 1 -5 2 -15 3 -21 1 -7 7 -12 13 -11 6 1 27 -13 46 -32 20 -19
42 -35 49 -35 9 0 9 -3 -2 -10 -12 -8 -11 -10 6 -10 14 0 24 -8 27 -22 5 -18
8 -19 21 -8 14 11 16 9 16 -11 0 -18 3 -20 9 -10 7 11 10 9 16 -9 6 -18 9 -20
16 -9 7 11 10 9 15 -8 4 -13 10 -20 15 -17 5 3 9 0 9 -6 0 -7 7 -10 15 -6 8 3
14 0 12 -7 -1 -7 4 -11 11 -9 6 1 12 -3 12 -9 0 -5 5 -7 10 -4 6 3 10 0 10 -7
0 -9 3 -9 10 2 8 13 10 12 10 -3 0 -10 4 -16 9 -12 5 3 13 0 16 -6 4 -5 13 -8
21 -5 7 3 18 -3 23 -12 6 -9 11 -13 11 -8 0 5 8 2 17 -5 11 -10 14 -10 9 -1
-4 6 -2 12 3 12 6 0 11 -7 11 -16 0 -10 6 -14 15 -11 8 4 17 2 20 -4 4 -5 10
-7 15 -4 5 3 11 1 15 -5 4 -6 11 -8 16 -4 5 3 16 0 24 -6 12 -10 15 -10 15 0
0 9 5 8 18 -3 10 -10 23 -17 28 -17 5 0 2 5 -6 10 -8 5 -10 10 -5 10 6 0 21
-7 33 -16 13 -9 32 -14 43 -11 10 3 22 1 25 -4 8 -13 78 -11 93 4 11 10 13 10
7 0 -5 -10 6 -13 43 -13 30 0 51 5 54 13 4 10 6 10 6 0 1 -20 71 -16 94 5 11
9 17 11 13 5 -9 -16 30 -18 39 -3 4 6 15 8 25 5 10 -3 25 1 33 10 18 17 31 20
21 4 -4 -8 -1 -8 12 -1 11 6 22 10 27 11 4 1 8 1 10 2 1 0 11 2 21 4 49 9 66
16 61 25 -3 5 4 7 15 5 11 -2 20 0 20 6 0 5 3 8 8 8 19 -3 33 2 27 10 -3 6 4
8 16 6 15 -3 19 0 15 10 -3 8 -1 15 3 15 5 0 12 -6 14 -12 4 -10 6 -10 6 0 1
7 6 10 11 7 6 -3 10 -1 10 4 0 6 6 10 13 9 6 -2 11 2 10 9 -2 7 4 10 12 7 8
-4 15 -1 15 6 0 6 5 8 10 5 6 -3 10 -2 10 3 0 5 10 12 23 16 18 5 20 8 7 16
-12 8 -10 10 10 8 19 -2 25 2 24 15 -2 14 1 15 12 6 13 -10 18 -6 15 14 0 4 4
7 10 7 5 0 8 4 4 9 -3 5 0 13 6 17 8 4 9 3 5 -4 -4 -7 -1 -12 8 -12 9 0 16 6
16 13 0 7 9 18 20 25 12 7 17 18 14 29 -5 15 -4 16 5 3 10 -13 12 -13 21 0 5
8 15 15 22 15 7 0 12 9 10 19 -2 11 1 15 7 11 6 -3 11 -1 11 5 0 6 7 18 15 26
8 9 15 12 15 8 0 -3 7 -1 15 6 16 14 10 34 -7 24 -7 -5 -8 -2 -4 5 5 7 10 10
13 7 3 -3 15 0 26 5 12 7 15 14 9 18 -13 8 41 87 57 83 7 -1 10 2 6 8 -11 17
5 52 21 46 9 -3 12 -1 9 4 -3 6 -1 10 5 10 6 0 8 5 5 10 -3 6 -1 10 5 10 6 0
8 5 5 10 -4 6 -11 7 -17 4 -7 -4 -8 -2 -4 4 4 6 14 8 23 5 12 -5 15 -2 10 9
-3 9 -3 19 1 23 4 3 7 14 7 23 0 9 6 16 13 14 8 -1 11 2 8 7 -4 5 -2 12 3 15
5 3 7 16 4 27 -4 14 0 25 11 31 9 5 14 13 11 18 -3 5 -1 11 5 15 6 4 8 10 5
15 -3 5 -1 11 5 15 5 3 10 11 10 16 0 6 -5 7 -11 3 -6 -3 -3 6 7 22 11 15 14
25 8 21 -7 -4 -15 0 -18 9 -3 8 -2 12 3 9 12 -7 24 12 27 44 1 14 5 42 9 61 5
20 4 32 -1 27 -9 -8 -10 -12 -13 -39 -1 -9 -4 -9 -11 2 -5 9 -5 19 1 27 6 7 7
18 3 24 -5 9 -2 10 11 5 15 -5 16 -4 6 8 -7 8 -8 17 -4 19 11 7 10 83 0 93 -4
4 -2 13 5 21 9 11 7 12 -7 7 -13 -5 -16 -4 -11 5 4 6 3 17 -3 24 -6 8 -6 18
-1 27 7 11 10 11 11 3 3 -28 4 -32 13 -40 5 -5 6 7 1 27 -4 19 -8 47 -9 61 -3
32 -15 51 -27 44 -5 -3 -6 1 -3 9 3 9 11 13 18 9 6 -4 3 6 -8 21 -10 16 -13
25 -7 22 6 -4 11 -3 11 3 0 5 -5 13 -10 16 -6 4 -8 10 -5 15 3 5 1 11 -5 15
-6 4 -8 10 -5 15 3 5 -2 13 -11 18 -11 6 -15 17 -11 31 3 11 1 24 -4 27 -5 3
-7 10 -3 15 3 5 0 8 -8 7 -7 -2 -13 5 -13 14 0 9 -3 20 -7 23 -4 4 -4 14 -1
23 5 11 2 14 -10 9 -9 -3 -19 -1 -23 5 -4 6 -3 8 4 4 6 -3 13 -2 17 4 3 5 1
10 -5 10 -6 0 -8 5 -5 10 3 6 1 10 -5 10 -6 0 -8 4 -5 10 3 5 0 7 -9 4 -16 -6
-32 29 -21 46 4 6 1 9 -6 8 -16 -4 -70 75 -57 83 10 7 -17 27 -35 27 -5 0 -12
4 -15 8 -4 4 -2 4 5 0 18 -10 25 10 8 24 -8 7 -15 9 -15 6 0 -4 -7 -1 -15 8
-8 8 -15 20 -15 26 0 6 -5 8 -11 5 -6 -4 -9 0 -7 11 2 10 -3 19 -10 19 -7 0
-17 7 -22 15 -9 13 -11 13 -21 0 -9 -13 -10 -12 -5 3 3 11 -2 22 -14 29 -11 7
-20 18 -20 24 0 7 -9 14 -21 17 -18 5 -18 3 -7 -11 12 -15 11 -16 -5 -3 -10 8
-16 20 -13 27 7 17 -5 26 -20 14 -9 -8 -12 -6 -10 7 1 13 -5 17 -24 15 -19 -1
-21 0 -10 7 12 9 12 11 -2 16 -10 4 -22 4 -27 0 -7 -4 -8 0 -4 11 4 11 3 15
-4 11 -6 -4 -13 -1 -16 5 -3 10 -8 10 -23 -2 -17 -14 -18 -13 -7 1 16 19 5 33
-13 18 -11 -9 -16 -6 -23 12 -5 13 -10 18 -10 12 -1 -7 -5 -13 -11 -13 -5 0
-7 7 -4 15 4 10 0 13 -15 10 -12 -2 -19 0 -16 6 6 8 -8 13 -27 10 -5 0 -8 3
-8 8 0 6 -9 8 -20 6 -11 -2 -18 0 -15 5 5 9 -16 17 -56 23 -8 2 -20 7 -28 11
-10 7 -12 5 -6 -3 4 -7 -4 -5 -19 4 -25 17 -26 17 -20 -1 6 -16 3 -15 -16 4
-12 13 -29 21 -36 18 -8 -3 -24 0 -35 7 -16 10 -21 9 -28 -1 -6 -10 -10 -10
-21 3 -7 8 -24 15 -39 14 -25 0 -25 0 -3 -9 33 -14 27 -20 -9 -10 -18 5 -36 7
-40 4 -5 -3 -9 0 -9 5 0 6 -22 11 -51 11 -27 0 -48 -3 -46 -7 3 -5 -8 -9 -24
-10 -17 -1 -27 2 -24 7 10 16 -38 10 -65 -8z m315 -56 c56 -5 199 -37 205 -44
3 -4 14 -8 25 -10 18 -3 103 -40 183 -80 17 -9 32 -20 32 -24 0 -5 7 -8 15 -8
8 0 15 -4 15 -10 0 -5 7 -10 15 -10 8 0 15 -4 15 -10 0 -5 5 -10 11 -10 38 0
289 -258 289 -297 0 -6 9 -18 19 -27 11 -10 22 -28 25 -42 4 -13 11 -24 16
-24 6 0 10 -9 10 -20 0 -11 5 -20 11 -20 5 0 8 -4 5 -8 -3 -5 8 -34 23 -66 16
-32 32 -73 36 -93 14 -78 46 -164 58 -158 7 4 4 0 -5 -8 -10 -8 -15 -17 -11
-20 8 -9 11 -225 3 -257 -4 -17 -1 -29 9 -38 9 -8 11 -11 4 -7 -12 6 -44 -80
-58 -158 -4 -20 -20 -61 -36 -93 -15 -32 -26 -61 -23 -66 3 -4 0 -8 -5 -8 -6
0 -11 -9 -11 -20 0 -11 -4 -20 -10 -20 -5 0 -12 -11 -16 -24 -3 -14 -14 -32
-25 -42 -10 -9 -19 -21 -19 -26 0 -28 -210 -258 -234 -258 -5 0 -25 -13 -45
-28 -46 -37 -178 -109 -244 -134 -86 -33 -225 -68 -296 -73 -36 -3 -80 -8 -98
-11 -18 -3 -80 0 -138 6 -282 29 -524 140 -715 330 -44 44 -80 84 -80 88 0 5
-11 19 -25 32 -14 13 -25 29 -25 37 0 7 -3 13 -8 13 -8 0 -14 11 -56 96 -45
94 -86 195 -92 228 -3 17 -9 50 -15 74 -28 127 -28 317 0 444 6 24 12 57 15
74 6 33 47 134 92 228 42 85 48 96 56 96 5 0 8 6 8 13 0 8 11 24 25 37 14 13
25 27 25 32 0 21 179 183 267 240 104 68 128 81 238 123 109 41 116 43 183 50
35 4 74 10 88 14 24 6 197 5 269 -3z"/>
<path d="M13146 15883 c-2 -3 -20 -6 -39 -8 -19 -2 -49 -10 -66 -19 -28 -15
-30 -15 -24 0 5 14 3 14 -27 -1 -43 -22 -84 -30 -74 -14 4 8 3 9 -5 5 -6 -4
-9 -12 -5 -17 3 -6 0 -9 -7 -7 -8 1 -16 -2 -17 -7 -7 -21 -26 -36 -38 -31 -8
3 -13 0 -11 -6 1 -7 -3 -12 -9 -13 -9 0 -87 -68 -135 -119 -11 -11 -19 -30
-19 -42 0 -13 -13 -33 -31 -48 -17 -14 -28 -30 -24 -36 4 -6 -1 -7 -12 -3 -16
6 -16 4 2 -17 l20 -23 -25 13 -25 13 19 -22 c13 -14 15 -21 6 -21 -7 0 -11 -3
-8 -6 4 -3 0 -21 -8 -40 -16 -38 -6 -44 21 -14 34 38 34 20 -1 -31 -37 -56
-38 -58 -25 -78 6 -10 5 -24 -4 -42 -14 -25 -13 -27 5 -22 16 4 20 0 21 -18 3
-92 22 -179 40 -179 7 0 68 -106 74 -130 9 -30 39 -82 50 -87 8 -3 15 -14 15
-24 0 -15 7 -19 31 -19 16 0 28 -3 25 -8 -5 -8 22 -49 29 -44 13 6 25 0 25
-13 0 -8 9 -15 20 -15 14 0 20 -7 20 -21 0 -19 4 -21 39 -16 28 3 48 -1 70
-14 17 -10 31 -17 31 -15 0 3 13 1 30 -4 18 -5 32 -5 36 1 3 5 38 7 82 3 58
-4 88 -2 121 10 51 19 54 19 47 7 -3 -5 1 -12 10 -15 16 -6 84 29 84 43 0 10
84 43 96 39 15 -4 74 35 74 49 0 7 -5 13 -11 13 -21 0 11 28 56 50 75 37 110
71 107 105 -2 25 4 34 34 53 35 23 35 24 18 43 -19 21 -6 26 16 7 12 -11 12
-10 0 5 -8 11 -10 21 -4 25 5 4 10 16 12 27 1 11 4 38 7 59 3 22 10 43 16 47
7 4 3 12 -12 22 -20 14 -21 18 -8 34 8 10 20 23 27 29 11 8 11 12 -2 23 -10 8
-12 19 -7 34 4 12 6 30 4 39 -5 19 -37 33 -54 22 -8 -4 -8 0 0 15 7 11 16 21
21 21 6 0 10 7 10 15 0 9 -9 15 -22 15 -19 0 -20 2 -8 10 13 8 13 10 1 10 -12
0 -12 3 -3 12 17 17 15 25 -9 31 -15 4 -20 11 -16 21 4 10 1 16 -9 16 -16 0
-34 38 -27 57 3 7 -8 13 -29 15 -23 2 -32 8 -30 19 1 9 -9 21 -24 28 -21 9
-24 15 -16 23 18 18 14 28 -8 28 -11 0 -24 8 -27 18 -4 9 -13 23 -20 30 -7 7
-13 20 -13 28 0 8 -5 12 -10 9 -6 -4 -25 3 -44 14 -35 22 -91 28 -101 11 -8
-13 -25 -13 -25 1 0 5 4 8 8 5 4 -2 13 4 20 15 10 16 9 19 -5 19 -10 0 -33 -4
-50 -9 -21 -6 -55 -6 -95 1 -71 12 -165 18 -172 11z"/>
<path d="M7622 15483 c-16 -6 -50 -73 -69 -137 -29 -97 1 -239 65 -308 l26
-28 2045 1 c1919 0 2048 2 2076 18 35 20 79 102 96 177 10 45 9 60 -11 127
-13 43 -29 82 -36 88 -8 6 -14 17 -14 24 0 6 -8 19 -18 28 -17 16 -175 17
-2083 16 -1135 0 -2070 -3 -2077 -6z"/>
<path d="M6052 13867 c-35 -12 -74 -33 -88 -46 l-24 -23 2 -1267 c3 -1102 5
-1270 18 -1295 21 -42 109 -92 174 -100 107 -12 228 33 267 99 16 28 18 108
18 1292 l1 1261 -30 29 c-74 70 -219 91 -338 50z"/>
<path d="M13175 13875 c-76 -21 -118 -41 -148 -71 l-27 -27 0 -1269 0 -1269
22 -29 c25 -35 97 -64 180 -74 75 -10 131 5 226 59 54 30 52 -33 52 1321 0
1404 7 1285 -74 1324 -39 19 -149 51 -171 49 -5 0 -32 -6 -60 -14z"/>
<path d="M3571 11511 c-11 -7 -11 -9 0 -13 8 -3 11 -8 8 -12 -4 -4 -14 0 -22
9 -17 17 -43 20 -51 6 -3 -5 -15 -7 -26 -4 -12 3 -22 -1 -26 -11 -3 -9 -10
-16 -16 -16 -5 0 -6 5 -3 10 13 20 -14 9 -31 -12 -11 -16 -15 -17 -11 -5 6 17
-4 23 -17 10 -4 -5 -13 -8 -19 -8 -7 0 -12 -6 -12 -14 0 -8 -7 -16 -15 -18
-12 -4 -12 -3 -1 5 9 7 10 12 2 16 -6 4 -14 0 -17 -8 -3 -9 -13 -16 -21 -16
-8 0 -11 -5 -7 -12 5 -7 3 -8 -7 -2 -24 15 -37 13 -42 -7 -3 -12 -12 -17 -26
-14 -13 2 -22 -3 -26 -16 -7 -20 -25 -27 -25 -9 0 6 5 10 12 10 6 0 9 2 6 5
-10 10 -39 -8 -34 -20 6 -18 -19 -26 -33 -12 -8 8 -11 7 -11 -6 0 -10 -5 -14
-15 -11 -11 4 -15 -1 -16 -17 0 -22 -1 -23 -8 -4 -8 19 -8 19 -16 -4 -5 -18
-9 -21 -16 -10 -7 12 -9 11 -10 -1 -1 -8 -1 -17 -1 -20 0 -3 -6 -11 -14 -18
-12 -11 -14 -10 -14 5 0 15 -2 15 -9 3 -6 -8 -7 -18 -5 -22 5 -8 -2 -10 -36
-12 -8 -1 -19 -11 -25 -23 -5 -13 -13 -23 -17 -23 -4 0 -5 -7 -2 -15 4 -10 0
-15 -10 -15 -9 0 -19 -7 -22 -15 -4 -8 -10 -12 -15 -9 -5 3 -9 -2 -9 -10 0 -9
-6 -13 -13 -10 -8 3 -20 -3 -28 -12 -12 -16 -12 -17 2 -12 9 4 16 1 16 -7 0
-8 -3 -13 -6 -12 -3 0 -19 -6 -36 -15 -24 -13 -27 -18 -14 -23 15 -6 14 -9 -6
-31 -12 -13 -29 -24 -36 -24 -11 0 -11 -2 -1 -9 10 -6 10 -10 -3 -21 -12 -10
-15 -10 -15 0 0 8 -3 10 -6 7 -4 -4 -1 -14 7 -23 12 -15 11 -16 -11 -11 -14 4
-19 4 -12 1 6 -3 12 -14 12 -24 0 -13 -6 -18 -20 -15 -23 4 -26 -5 -7 -24 10
-10 8 -11 -8 -5 -11 4 -17 4 -13 -1 4 -4 0 -14 -10 -21 -9 -7 -12 -14 -5 -14
6 0 10 -8 8 -17 -2 -10 -4 -24 -4 -31 -1 -7 -5 -10 -11 -7 -5 3 -15 3 -21 -1
-7 -4 -8 -9 -1 -13 16 -10 2 -58 -21 -70 -12 -6 -15 -10 -6 -7 12 3 15 -1 12
-14 -3 -11 -8 -19 -12 -18 -18 2 -21 -4 -11 -21 7 -14 7 -22 -2 -27 -7 -4 -8
-3 -4 4 4 7 2 12 -4 12 -7 0 -9 -7 -6 -16 4 -9 1 -24 -6 -33 -8 -10 -3 -8 12
4 l24 20 -17 -28 c-10 -15 -15 -33 -11 -39 4 -6 3 -8 -3 -5 -15 9 -26 -24 -13
-37 8 -8 9 -5 5 9 -5 14 -4 16 3 7 12 -17 8 -70 -7 -85 -8 -8 -8 -1 -1 23 6
22 6 30 0 24 -14 -14 -26 -79 -12 -70 6 3 13 2 16 -3 4 -5 2 -12 -2 -15 -12
-7 -12 -85 0 -92 4 -3 6 -10 2 -15 -3 -5 -10 -6 -16 -3 -14 9 -2 -56 12 -70 6
-6 6 2 0 24 -7 24 -7 31 1 23 15 -15 19 -68 7 -85 -7 -9 -8 -7 -3 7 4 14 3 17
-5 9 -13 -13 -2 -46 13 -37 6 3 7 1 3 -5 -4 -6 1 -24 11 -39 l17 -28 -24 20
c-15 12 -20 14 -12 4 7 -9 10 -24 6 -33 -3 -9 -1 -16 6 -16 6 0 8 5 4 12 -4 7
-3 8 4 4 9 -5 9 -13 2 -27 -10 -17 -7 -23 11 -21 4 1 9 -7 12 -18 3 -13 0 -17
-12 -14 -9 3 -6 -1 6 -7 23 -12 37 -60 21 -70 -7 -4 -6 -9 1 -13 6 -4 16 -4
21 -1 6 3 10 0 11 -7 0 -7 2 -21 4 -30 2 -10 -2 -18 -8 -18 -7 0 -4 -7 5 -14
10 -7 14 -17 10 -21 -4 -5 2 -5 13 -1 16 6 18 5 8 -5 -19 -19 -16 -28 7 -24
14 3 20 -2 20 -15 0 -10 -6 -21 -12 -24 -7 -3 -2 -3 12 1 22 5 23 4 11 -11 -8
-9 -11 -19 -7 -23 3 -3 6 -1 6 7 0 10 3 10 15 0 13 -11 13 -15 3 -21 -10 -7
-10 -9 1 -9 7 0 24 -11 36 -24 20 -22 21 -25 6 -31 -13 -5 -10 -10 14 -23 17
-9 33 -15 36 -15 3 1 6 -4 6 -12 0 -8 -7 -11 -16 -7 -14 5 -14 4 -2 -12 8 -9
20 -15 28 -12 7 3 13 -1 13 -10 0 -8 4 -13 9 -10 5 3 11 -1 15 -9 3 -8 13 -15
22 -15 10 0 14 -5 10 -15 -3 -8 -2 -15 2 -15 4 0 12 -10 17 -22 6 -13 17 -22
26 -20 9 1 22 -9 29 -23 8 -14 16 -21 20 -16 6 10 32 -1 31 -13 -3 -23 0 -30
8 -17 7 11 10 9 16 -9 6 -18 9 -20 16 -9 7 11 9 10 9 -5 0 -12 5 -16 15 -12
10 3 15 -1 15 -11 0 -13 3 -14 11 -6 14 14 39 6 33 -12 -6 -14 22 -29 37 -19
5 3 9 1 9 -5 0 -5 9 -8 20 -6 15 3 24 -3 30 -18 5 -12 9 -18 9 -13 1 5 9 2 18
-5 14 -12 16 -12 9 1 -4 8 0 6 8 -4 12 -15 16 -16 16 -5 1 10 3 9 11 -4 6 -9
14 -15 19 -12 5 3 11 1 15 -5 4 -6 10 -8 15 -5 5 3 11 1 15 -5 10 -17 25 -11
18 8 -4 11 0 10 11 -5 17 -22 44 -33 31 -13 -3 6 -2 10 3 10 6 0 13 -7 16 -16
4 -10 14 -14 26 -11 11 3 23 1 26 -4 7 -13 44 -11 44 2 0 6 7 3 16 -5 18 -19
75 -21 92 -4 9 9 12 9 12 0 0 -8 17 -12 45 -12 28 0 45 4 45 12 0 9 3 9 12 0
13 -13 56 -16 83 -6 13 5 14 8 3 15 -10 7 -9 9 5 9 9 0 17 -4 17 -10 0 -12 37
-13 44 -1 3 5 15 7 26 4 12 -3 22 1 26 11 3 9 10 16 16 16 5 0 6 -4 3 -10 -13
-20 14 -9 31 13 11 15 15 16 11 5 -6 -18 4 -24 17 -10 4 4 13 7 19 7 7 0 12 6
12 14 0 8 7 16 15 18 12 4 12 3 1 -5 -8 -6 -10 -12 -3 -16 6 -4 15 1 20 10 5
9 23 17 41 18 17 0 31 6 31 13 0 6 4 15 10 18 6 3 8 -2 5 -12 -3 -10 0 -8 7 5
7 15 18 22 29 19 13 -3 16 0 12 12 -5 13 -3 14 8 4 18 -17 32 -16 26 1 -7 18
17 28 32 13 8 -8 11 -5 12 14 0 13 3 18 6 12 8 -20 23 -15 23 7 0 11 4 20 10
20 5 0 7 -8 4 -17 -3 -10 1 -7 9 6 11 18 16 20 20 10 4 -11 6 -10 6 3 1 9 -5
19 -11 21 -7 3 -2 6 11 6 18 1 22 5 17 18 -4 10 -4 14 0 10 4 -4 13 -2 21 4 7
6 13 8 13 4 0 -4 7 -2 15 5 12 10 15 10 15 0 0 -10 3 -10 15 0 8 7 12 16 10
21 -3 4 3 13 12 19 16 10 15 11 -7 6 -21 -4 -23 -3 -10 7 8 7 21 19 29 27 10
11 12 12 6 1 -5 -9 -3 -12 6 -9 8 3 13 11 11 18 -2 8 3 10 13 7 9 -4 15 -1 15
9 0 8 5 12 10 9 6 -4 18 -1 26 6 11 9 12 14 3 20 -8 5 -2 14 20 27 22 13 29
22 21 27 -7 5 -21 -4 -35 -21 -13 -16 -26 -26 -30 -23 -3 4 4 16 16 27 20 19
20 20 2 16 -11 -3 -26 -15 -34 -26 -31 -46 -155 -158 -174 -158 -3 0 -27 -15
-54 -33 -93 -64 -260 -137 -381 -165 -63 -16 -203 -32 -268 -32 -151 0 -370
53 -511 125 -124 62 -281 174 -320 229 -8 11 -25 31 -37 45 -42 47 -71 86 -93
121 -25 41 -101 198 -101 208 0 4 -7 19 -14 34 -8 16 -17 45 -21 65 -3 21 -10
54 -15 73 -30 118 -30 342 0 460 5 19 12 52 15 73 4 20 13 49 21 65 7 15 14
30 14 34 0 10 76 167 101 208 12 19 32 48 46 65 75 92 91 110 122 139 19 17
42 38 51 47 9 8 52 40 96 70 43 30 81 56 84 59 7 7 82 45 89 45 11 1 106 38
116 46 11 8 33 13 120 30 28 6 61 12 75 15 51 11 252 13 322 4 101 -13 127
-19 178 -37 43 -14 56 -18 72 -22 11 -2 138 -65 177 -87 95 -54 249 -182 290
-242 8 -11 23 -23 34 -26 18 -4 18 -3 -2 16 -12 11 -19 23 -16 27 4 3 17 -7
30 -23 14 -17 28 -26 35 -21 8 5 1 14 -21 27 -22 13 -28 22 -20 27 9 6 8 11
-3 20 -8 7 -20 10 -26 6 -5 -3 -10 1 -10 9 0 10 -6 13 -15 9 -10 -3 -15 -1
-13 7 2 7 -3 15 -11 18 -9 3 -11 0 -6 -9 6 -11 4 -10 -6 1 -8 8 -21 20 -29 27
-13 10 -11 11 10 7 22 -5 23 -4 7 6 -9 6 -15 15 -12 19 2 5 -2 14 -10 21 -12
10 -15 10 -15 0 0 -10 -3 -10 -15 0 -8 7 -15 9 -15 5 0 -4 -6 -2 -13 4 -8 6
-17 8 -21 4 -4 -4 -4 1 0 11 5 12 4 17 -2 13 -6 -3 -16 -2 -24 4 -10 6 -11 9
-2 9 6 0 12 8 11 18 0 12 -2 13 -6 3 -4 -10 -9 -8 -20 10 -8 13 -12 16 -9 7 3
-10 2 -18 -3 -18 -5 0 -12 10 -16 23 -6 19 -8 20 -12 4 -6 -22 -38 -15 -66 14
-10 11 -25 19 -34 19 -14 0 -14 2 3 15 19 14 19 14 -2 9 -14 -4 -24 1 -32 18
-7 13 -11 15 -8 6 3 -9 -1 -19 -8 -21 -9 -4 -11 2 -8 18 4 24 -9 28 -37 11
-10 -6 -12 -5 -7 2 4 7 1 12 -7 12 -8 0 -18 7 -21 16 -3 8 -10 13 -15 9 -5 -3
-12 -1 -16 5 -4 6 -10 8 -15 5 -5 -3 -11 -1 -15 5 -10 17 -25 11 -18 -7 4 -12
0 -11 -11 5 -16 21 -44 32 -31 13 3 -5 1 -12 -4 -15 -5 -3 -11 4 -14 15 -4 16
-11 20 -26 16 -12 -3 -24 -1 -27 4 -8 14 -34 11 -51 -6 -8 -9 -18 -13 -21 -10
-4 3 -1 10 7 14 15 10 -8 21 -42 21 -16 0 -18 -3 -8 -9 8 -5 9 -11 3 -15 -6
-3 -14 -1 -17 5 -4 5 -13 8 -21 5 -8 -3 -14 -1 -14 4 0 6 -20 10 -45 10 -25 0
-45 -4 -45 -10 0 -5 -6 -7 -14 -4 -8 3 -17 0 -21 -5 -3 -6 -11 -8 -17 -5 -6 4
-5 10 3 15 10 6 7 9 -11 9 -14 0 -31 -4 -39 -9z"/>
<path d="M15576 11504 c-15 -9 -25 -11 -22 -5 4 6 2 11 -3 11 -6 0 -11 -4 -11
-9 0 -5 -13 -8 -30 -6 -16 2 -33 -1 -36 -7 -5 -7 -2 -8 6 -3 9 5 11 4 6 -4 -5
-7 -13 -8 -24 -2 -10 6 -23 6 -34 0 -10 -5 -18 -7 -18 -3 0 4 -10 -1 -22 -12
-12 -10 -18 -13 -14 -6 4 6 3 12 -3 12 -5 0 -12 -9 -16 -19 -6 -21 -56 -35
-66 -19 -4 6 -11 2 -18 -10 -7 -13 -17 -19 -26 -16 -8 4 -15 2 -15 -4 0 -5 -9
-12 -20 -15 -11 -3 -18 -1 -14 4 3 5 -2 6 -10 3 -9 -3 -16 -14 -16 -23 0 -14
-2 -14 -10 -1 -7 11 -10 11 -10 2 0 -7 -4 -10 -10 -7 -5 3 -10 -1 -10 -10 0
-9 -4 -13 -10 -10 -5 3 -10 -1 -10 -9 0 -8 -8 -17 -17 -20 -10 -3 -31 -17 -47
-31 -21 -18 -33 -22 -41 -15 -10 8 -16 2 -24 -22 -9 -24 -14 -29 -23 -20 -14
14 -38 -2 -38 -27 0 -9 -10 -21 -22 -26 -13 -6 -27 -20 -33 -32 -5 -13 -17
-23 -26 -23 -25 0 -41 -24 -26 -39 6 -7 8 -11 2 -10 -5 2 -20 -3 -33 -10 -19
-10 -21 -15 -11 -27 7 -8 8 -14 3 -13 -5 1 -16 1 -24 -1 -11 -1 -9 -4 5 -10
17 -7 17 -9 3 -9 -10 -1 -18 -8 -18 -17 0 -8 -3 -13 -7 -11 -5 3 -14 -1 -21
-9 -11 -12 -10 -14 5 -15 12 0 9 -4 -10 -11 -15 -5 -25 -14 -21 -19 3 -5 1 -9
-5 -9 -6 0 -8 -6 -5 -14 3 -7 -6 -26 -21 -42 -19 -21 -22 -29 -13 -36 9 -5 8
-8 -5 -8 -10 0 -15 -4 -12 -10 3 -5 1 -10 -4 -10 -6 0 -10 -3 -10 -7 1 -5 1
-10 -1 -13 -9 -25 -8 -50 2 -44 7 4 8 3 4 -4 -4 -7 -14 -12 -21 -12 -9 0 -12
-6 -9 -15 4 -8 1 -15 -6 -15 -9 0 -10 -3 -1 -14 9 -10 8 -15 -4 -19 -8 -4 -12
-13 -9 -21 3 -8 0 -17 -5 -21 -6 -3 -9 -11 -5 -16 3 -5 0 -17 -7 -25 -9 -11
-9 -18 -1 -26 14 -14 16 -32 3 -24 -12 8 -21 -18 -11 -33 4 -7 1 -26 -7 -42
-11 -22 -12 -40 -5 -74 6 -29 6 -61 0 -90 -7 -34 -6 -52 5 -74 8 -16 11 -35 7
-42 -10 -15 -1 -41 11 -33 13 8 11 -10 -3 -24 -8 -8 -8 -15 1 -26 7 -8 10 -20
7 -25 -4 -5 -1 -13 5 -16 5 -4 8 -13 5 -21 -3 -8 1 -17 9 -21 12 -4 13 -9 4
-19 -9 -11 -8 -14 1 -14 7 0 10 -7 6 -15 -3 -9 0 -15 9 -15 7 0 17 -5 21 -12
4 -7 3 -8 -4 -4 -10 6 -11 -19 -2 -44 2 -3 2 -8 1 -12 0 -5 4 -8 10 -8 5 0 7
-4 4 -10 -3 -5 2 -10 12 -10 13 0 14 -3 5 -8 -9 -7 -6 -15 13 -36 15 -16 24
-35 21 -42 -3 -8 -1 -14 5 -14 6 0 8 -4 5 -9 -4 -5 6 -14 21 -19 19 -7 22 -11
10 -11 -15 -1 -16 -3 -5 -15 7 -8 16 -12 21 -9 4 2 7 -3 7 -11 0 -9 8 -16 18
-17 14 0 14 -2 -3 -9 -14 -6 -16 -9 -5 -10 8 -2 19 -2 24 -1 5 1 4 -5 -3 -13
-10 -12 -8 -17 11 -27 13 -7 27 -12 32 -11 5 2 4 -3 -2 -11 -14 -16 2 -37 28
-37 8 0 20 -10 25 -22 6 -13 20 -27 33 -33 12 -5 22 -17 22 -26 0 -25 24 -41
38 -27 9 9 14 4 23 -20 8 -24 14 -30 24 -22 8 7 20 3 41 -15 16 -14 37 -28 47
-31 9 -3 17 -12 17 -20 0 -8 5 -12 10 -9 6 3 10 -1 10 -10 0 -9 5 -13 10 -10
6 3 10 0 10 -7 0 -9 3 -9 10 2 8 13 10 13 10 -1 0 -9 7 -20 16 -23 8 -3 13 -2
10 3 -4 5 3 7 14 4 11 -3 20 -10 20 -15 0 -5 6 -8 14 -6 8 2 22 -6 30 -17 11
-14 15 -16 16 -6 0 11 4 10 16 -5 8 -10 13 -13 9 -6 -11 21 24 14 37 -8 14
-21 34 -29 22 -7 -4 6 2 3 14 -7 12 -11 22 -16 22 -12 0 4 8 2 18 -3 11 -6 24
-6 34 0 11 6 19 5 24 -2 5 -8 3 -9 -6 -4 -8 5 -11 4 -6 -3 3 -6 20 -9 36 -7
17 2 30 -1 30 -6 0 -5 5 -9 11 -9 5 0 7 5 3 11 -3 6 8 4 24 -5 34 -17 87 -22
77 -7 -3 6 4 7 17 4 52 -13 193 -11 222 4 20 10 26 11 20 2 -5 -9 -2 -10 12
-4 10 4 29 8 41 9 12 1 24 4 28 8 4 4 14 4 23 1 9 -4 13 -2 9 4 -5 7 0 9 13 6
11 -3 26 0 33 6 8 6 16 8 19 5 3 -3 21 1 39 9 19 8 36 14 39 13 3 0 16 7 30
17 13 9 31 17 39 17 7 0 20 8 28 18 8 9 12 11 8 5 -4 -9 -1 -11 9 -7 9 3 16
10 16 15 0 5 3 8 8 8 20 -3 32 3 32 17 0 8 4 13 9 9 6 -3 14 3 20 12 6 11 11
13 11 5 0 -11 31 4 70 35 2 2 -2 9 -10 14 -11 8 -8 10 13 6 22 -3 28 0 33 18
3 14 12 22 22 20 23 -3 42 13 42 37 0 14 5 18 16 14 11 -4 15 -2 11 8 -3 8 2
16 14 19 10 3 19 12 19 21 0 9 8 16 19 16 23 0 46 25 32 35 -7 4 -7 12 1 25 9
14 14 16 20 7 5 -9 10 -9 20 1 10 10 10 15 -2 22 -12 8 -11 10 6 10 15 0 20 6
20 23 -1 12 4 21 11 20 7 -2 10 4 7 12 -5 11 -2 13 12 8 12 -4 15 -3 10 5 -4
7 0 15 9 18 13 6 14 8 3 15 -10 7 -10 9 3 9 12 0 15 7 12 28 -3 23 -2 24 6 7
8 -17 10 -18 10 -2 1 9 6 17 13 17 6 0 8 3 5 7 -4 3 -1 13 6 21 10 13 9 15 -6
9 -11 -4 -16 -3 -12 3 3 6 13 10 21 10 8 0 12 5 9 10 -3 6 0 10 7 10 10 0 10
2 -1 9 -10 7 -11 9 -1 13 7 2 15 14 17 27 2 15 -1 20 -9 15 -7 -4 -8 -3 -4 4
4 7 15 12 24 12 13 0 14 2 4 9 -11 6 -10 10 3 15 13 5 15 9 6 20 -9 10 -8 15
4 20 9 3 13 11 10 16 -4 6 -2 16 3 23 15 19 23 65 12 72 -12 8 -13 45 -1 45 5
0 7 -10 5 -22 -4 -21 -4 -22 5 -3 14 29 13 45 -2 39 -8 -3 -13 4 -14 18 -2 17
0 19 7 8 7 -11 11 -9 19 13 15 38 14 57 -2 57 -8 0 -14 7 -14 15 0 8 4 15 9
15 4 0 8 14 8 30 0 17 -4 30 -8 30 -5 0 -9 7 -9 15 0 8 6 15 14 15 16 0 17 19
2 57 -8 22 -12 24 -19 13 -7 -11 -9 -9 -7 8 1 14 6 21 14 18 15 -6 16 10 2 39
-9 19 -9 18 -5 -2 2 -13 0 -23 -5 -23 -12 0 -11 37 1 45 11 7 3 53 -12 72 -5
7 -7 17 -3 23 3 5 -1 13 -10 16 -12 5 -13 10 -4 20 9 11 7 15 -6 20 -13 5 -14
9 -3 15 10 7 9 9 -4 9 -9 0 -20 5 -24 12 -4 7 -3 8 4 4 8 -5 11 0 9 14 -2 12
-9 25 -16 30 -11 6 -11 9 0 13 11 4 11 6 1 6 -7 1 -10 6 -7 11 3 6 -1 10 -9
10 -8 0 -18 4 -21 10 -4 6 1 7 12 3 15 -6 16 -4 6 9 -7 8 -10 18 -6 21 3 4 1
7 -5 7 -7 0 -12 8 -13 18 0 15 -2 14 -10 -3 -8 -17 -9 -16 -6 8 3 20 0 27 -12
27 -13 0 -13 2 -3 9 11 7 10 9 -3 15 -9 3 -13 11 -9 18 5 8 2 9 -10 5 -14 -5
-17 -3 -12 8 3 8 0 14 -7 12 -7 -1 -12 8 -11 21 0 16 -5 22 -20 22 -17 0 -18
2 -6 10 12 7 12 12 2 22 -10 10 -15 10 -20 1 -6 -9 -11 -7 -20 7 -8 13 -8 21
-1 25 14 9 -9 35 -31 35 -10 0 -20 9 -23 20 -3 11 -12 20 -21 20 -10 0 -13 6
-10 15 5 11 2 13 -10 9 -11 -4 -16 0 -16 14 0 25 -23 45 -36 32 -7 -7 -17 -3
-30 11 -10 13 -13 19 -7 15 9 -5 11 -2 7 9 -4 10 -10 12 -18 6 -7 -6 -17 -6
-26 -1 -10 7 -11 10 -2 10 21 0 13 14 -23 38 -32 20 -35 20 -36 5 0 -14 -3
-12 -10 5 -5 13 -13 20 -19 17 -5 -3 -10 0 -10 8 0 19 -27 30 -34 14 -2 -7 -5
-5 -5 4 -1 9 -8 20 -17 23 -8 3 -13 2 -10 -3 11 -17 -36 2 -61 25 -14 13 -28
23 -32 22 -3 -1 -24 7 -46 16 -26 12 -41 14 -43 7 -5 -15 -23 -14 -19 2 1 7
-9 12 -25 12 -14 -1 -24 4 -21 9 4 5 -1 7 -9 3 -9 -3 -19 -3 -23 1 -4 4 -16 7
-28 8 -12 1 -31 5 -41 9 -14 6 -17 5 -12 -4 6 -8 -2 -7 -22 3 -36 18 -65 20
-92 6 -13 -7 -21 -7 -25 0 -3 5 -20 10 -36 10 -17 0 -39 -5 -49 -10 -13 -7
-21 -7 -25 0 -9 15 -56 11 -89 -6z m324 -58 c64 -6 158 -26 189 -38 14 -6 28
-12 31 -13 144 -38 412 -216 503 -335 57 -73 136 -197 165 -258 52 -106 102
-278 102 -347 0 -20 3 -34 8 -32 4 3 7 -44 7 -103 0 -59 -3 -106 -7 -103 -5 2
-8 -12 -8 -32 0 -69 -51 -241 -102 -347 -84 -175 -199 -314 -338 -412 -173
-122 -355 -196 -540 -222 -84 -11 -268 -8 -351 6 -124 21 -307 89 -414 153
-70 43 -117 75 -165 116 -75 62 -80 68 -73 75 4 3 -1 6 -10 6 -10 0 -17 4 -17
8 0 8 -34 54 -61 82 -8 9 -19 23 -22 31 -4 8 -20 37 -37 64 -37 63 -74 139
-91 188 -7 20 -15 37 -19 37 -3 0 -6 10 -6 23 -1 12 -9 51 -17 87 -8 36 -13
68 -10 73 2 4 -1 7 -6 7 -6 0 -11 10 -11 23 0 12 -5 29 -10 37 -8 12 -10 11
-10 -7 0 -17 -6 -23 -22 -22 -22 0 -22 1 -3 9 11 5 14 9 7 9 -7 1 -12 9 -11
19 1 9 1 20 0 25 -1 4 -2 34 -2 67 0 33 1 63 2 68 1 4 1 15 0 25 -1 9 4 17 11
18 7 0 4 4 -7 9 -19 8 -19 9 3 9 16 1 22 -5 22 -21 0 -19 2 -20 10 -8 5 8 10
25 10 38 0 12 5 22 11 22 5 0 8 3 6 8 -3 4 2 36 10 72 8 36 16 75 17 88 0 12
3 22 6 22 4 0 12 17 19 38 17 48 54 124 91 187 17 28 33 56 37 64 3 8 14 22
22 31 27 28 61 74 61 82 0 4 8 8 17 8 9 0 13 3 10 6 -8 8 34 46 133 121 41 32
80 62 85 68 6 5 17 11 25 13 8 2 20 8 27 14 22 18 87 49 148 70 33 11 65 24
70 29 13 10 41 16 170 37 93 16 230 19 335 8z"/>
<path d="M15656 10953 c-2 -3 -20 -6 -39 -8 -19 -2 -49 -10 -66 -19 -28 -15
-30 -15 -24 0 5 14 3 14 -27 -1 -43 -22 -84 -30 -74 -14 4 8 3 9 -5 5 -6 -4
-9 -12 -5 -17 3 -6 0 -9 -7 -7 -8 1 -16 -2 -17 -7 -7 -21 -26 -36 -38 -31 -8
3 -13 0 -11 -6 1 -7 -3 -12 -9 -13 -9 0 -87 -68 -135 -119 -11 -11 -19 -30
-19 -42 0 -13 -13 -33 -31 -48 -17 -14 -28 -30 -24 -36 4 -6 -1 -7 -12 -3 -16
6 -16 4 2 -17 l20 -23 -25 13 -25 13 19 -22 c13 -14 15 -21 6 -21 -7 0 -11 -3
-8 -6 4 -3 0 -21 -8 -40 -16 -38 -6 -44 21 -14 34 38 34 20 -1 -31 -37 -56
-38 -58 -25 -78 6 -10 5 -24 -4 -42 -14 -25 -13 -27 5 -22 16 4 20 0 21 -18 3
-92 22 -179 40 -179 7 0 68 -106 74 -130 9 -30 39 -82 50 -87 8 -3 15 -14 15
-24 0 -15 7 -19 31 -19 16 0 28 -3 25 -8 -5 -8 22 -49 29 -44 13 6 25 0 25
-13 0 -8 9 -15 20 -15 14 0 20 -7 20 -21 0 -19 4 -21 39 -16 28 3 48 -1 70
-14 17 -10 31 -17 31 -15 0 3 13 1 30 -4 18 -5 32 -5 36 1 3 5 38 7 82 3 58
-4 88 -2 121 10 51 19 54 19 47 7 -3 -5 1 -12 10 -15 16 -6 84 29 84 43 0 10
84 43 96 39 15 -4 74 35 74 49 0 7 -5 13 -11 13 -21 0 11 28 56 50 75 37 110
71 107 105 -2 25 4 34 34 53 35 23 35 24 18 43 -19 21 -6 26 16 7 12 -11 12
-10 0 5 -8 11 -10 21 -4 25 5 4 10 16 12 27 1 11 4 38 7 59 3 22 10 43 16 47
7 4 3 12 -12 22 -20 14 -21 18 -8 34 8 10 20 23 27 29 11 8 11 12 -2 23 -10 8
-12 19 -7 34 4 12 6 30 4 39 -5 19 -37 33 -54 22 -8 -4 -8 0 0 15 7 11 16 21
21 21 6 0 10 7 10 15 0 9 -9 15 -22 15 -19 0 -20 2 -8 10 13 8 13 10 1 10 -12
0 -12 3 -3 12 17 17 15 25 -9 31 -15 4 -20 11 -16 21 4 10 1 16 -9 16 -16 0
-34 38 -27 57 3 7 -8 13 -29 15 -23 2 -32 8 -30 19 1 9 -9 21 -24 28 -21 9
-24 15 -16 23 18 18 14 28 -8 28 -11 0 -24 8 -27 18 -4 9 -13 23 -20 30 -7 7
-13 20 -13 28 0 8 -5 12 -10 9 -6 -4 -25 3 -44 14 -35 22 -91 28 -101 11 -8
-13 -25 -13 -25 1 0 5 4 8 8 5 4 -2 13 4 20 15 10 16 9 19 -5 19 -10 0 -33 -4
-50 -9 -21 -6 -55 -6 -95 1 -71 12 -165 18 -172 11z"/>
<path d="M3616 10953 c-2 -3 -20 -6 -39 -8 -19 -2 -49 -10 -66 -19 -28 -15
-30 -15 -24 0 5 14 3 14 -27 -1 -43 -22 -84 -30 -74 -14 4 8 3 9 -5 5 -6 -4
-9 -12 -5 -17 3 -6 0 -9 -7 -7 -8 1 -16 -2 -17 -7 -7 -21 -26 -36 -38 -31 -8
3 -13 0 -11 -6 1 -7 -3 -12 -9 -13 -9 0 -87 -68 -135 -119 -11 -11 -19 -30
-19 -42 0 -13 -13 -33 -31 -48 -17 -14 -28 -30 -24 -36 4 -6 -1 -7 -12 -3 -16
6 -16 4 2 -17 l20 -23 -25 13 -25 13 19 -22 c13 -14 15 -21 6 -21 -7 0 -11 -3
-8 -6 4 -3 0 -21 -8 -40 -16 -38 -6 -44 21 -14 34 38 34 20 -1 -31 -37 -56
-38 -58 -25 -78 6 -10 5 -24 -4 -42 -14 -25 -13 -27 5 -22 16 4 20 0 21 -18 3
-92 22 -179 40 -179 7 0 68 -106 74 -130 9 -30 39 -82 50 -87 8 -3 15 -14 15
-24 0 -15 7 -19 31 -19 16 0 28 -3 25 -8 -5 -8 22 -49 29 -44 13 6 25 0 25
-13 0 -8 9 -15 20 -15 14 0 20 -7 20 -21 0 -19 4 -21 39 -16 28 3 48 -1 70
-14 17 -10 31 -17 31 -15 0 3 13 1 30 -4 18 -5 32 -5 36 1 3 5 38 7 82 3 58
-4 88 -2 121 10 51 19 54 19 47 7 -3 -5 1 -12 10 -15 16 -6 84 29 84 43 0 10
84 43 96 39 15 -4 74 35 74 49 0 7 -5 13 -11 13 -21 0 11 28 56 50 75 37 110
71 107 105 -2 25 4 34 34 53 35 23 35 24 18 43 -19 21 -6 26 16 7 12 -11 12
-10 0 5 -8 11 -10 21 -4 25 5 4 10 16 12 27 1 11 4 38 7 59 3 22 10 43 16 47
7 4 3 12 -12 22 -20 14 -21 18 -8 34 8 10 20 23 27 29 11 8 11 12 -2 23 -10 8
-12 19 -7 34 4 12 6 30 4 39 -5 19 -37 33 -54 22 -8 -4 -8 0 0 15 7 11 16 21
21 21 6 0 10 7 10 15 0 9 -9 15 -22 15 -19 0 -20 2 -8 10 13 8 13 10 1 10 -12
0 -12 3 -3 12 17 17 15 25 -9 31 -15 4 -20 11 -16 21 4 10 1 16 -9 16 -16 0
-34 38 -27 57 3 7 -8 13 -29 15 -23 2 -32 8 -30 19 1 9 -9 21 -24 28 -21 9
-24 15 -16 23 18 18 14 28 -8 28 -11 0 -24 8 -27 18 -4 9 -13 23 -20 30 -7 7
-13 20 -13 28 0 8 -5 12 -10 9 -6 -4 -25 3 -44 14 -35 22 -91 28 -101 11 -8
-13 -25 -13 -25 1 0 5 4 8 8 5 4 -2 13 4 20 15 10 16 9 19 -5 19 -10 0 -33 -4
-50 -9 -21 -6 -55 -6 -95 1 -71 12 -165 18 -172 11z"/>
<path d="M6163 10604 c-3 -7 -14 -10 -26 -7 -68 16 -80 16 -74 -1 9 -23 -16
-49 -32 -33 -8 8 -11 8 -11 -2 0 -7 -4 -9 -10 -6 -5 3 -10 2 -10 -2 0 -5 -6
-18 -14 -28 -12 -16 -16 -17 -30 -6 -14 12 -16 11 -16 -8 0 -11 -4 -21 -10
-21 -5 0 -10 8 -10 18 0 14 -2 15 -10 2 -5 -8 -5 -17 -1 -20 4 -3 7 -23 5 -45
-2 -58 -3 -59 -20 -44 -14 11 -18 10 -29 -5 -8 -10 -11 -25 -8 -34 4 -9 2 -13
-4 -9 -16 10 -22 -48 -7 -68 7 -9 11 -24 10 -33 -2 -9 4 -22 12 -28 8 -6 12
-16 8 -23 -6 -9 -11 -8 -20 5 -10 13 -15 14 -21 4 -5 -8 -4 -11 2 -7 6 4 14 0
17 -9 3 -8 9 -13 14 -11 4 3 16 -12 26 -34 11 -22 26 -39 36 -39 9 0 26 -9 38
-20 12 -11 24 -20 27 -20 3 0 24 -12 46 -26 22 -14 52 -27 67 -29 15 -2 47 -7
72 -12 58 -10 70 -10 97 5 12 7 37 14 55 16 18 2 34 9 36 15 2 6 10 11 18 11
7 0 16 11 20 24 4 17 11 23 22 19 10 -4 13 -2 8 5 -4 8 0 12 11 12 16 1 16 2
2 13 -30 22 -6 83 28 70 12 -5 18 8 14 30 0 4 3 7 9 7 17 0 11 28 -7 39 -17 9
-17 10 0 28 21 24 21 28 1 48 -9 8 -18 34 -20 56 -3 33 -13 49 -55 90 -56 55
-104 83 -121 73 -7 -5 -8 -3 -3 6 6 10 3 12 -11 8 -11 -3 -25 0 -31 6 -28 26
-39 32 -62 32 -13 0 -25 -6 -28 -12z"/>
<path d="M13223 10604 c-3 -7 -14 -10 -26 -7 -68 16 -80 16 -74 -1 9 -23 -16
-49 -32 -33 -8 8 -11 8 -11 -2 0 -7 -4 -9 -10 -6 -5 3 -10 2 -10 -2 0 -5 -6
-18 -14 -28 -12 -16 -16 -17 -30 -6 -14 12 -16 11 -16 -8 0 -11 -4 -21 -10
-21 -5 0 -10 8 -10 18 0 14 -2 15 -10 2 -5 -8 -5 -17 -1 -20 4 -3 7 -23 5 -45
-2 -58 -3 -59 -20 -44 -14 11 -18 10 -29 -5 -8 -10 -11 -25 -8 -34 4 -9 2 -13
-4 -9 -16 10 -22 -48 -7 -68 7 -9 11 -24 10 -33 -2 -9 4 -22 12 -28 8 -6 12
-16 8 -23 -6 -9 -11 -8 -20 5 -10 13 -15 14 -21 4 -5 -8 -4 -11 2 -7 6 4 14 0
17 -9 3 -8 9 -13 14 -11 4 3 16 -12 26 -34 11 -22 26 -39 36 -39 9 0 26 -9 38
-20 12 -11 24 -20 27 -20 3 0 24 -12 46 -26 22 -14 52 -27 67 -29 15 -2 47 -7
72 -12 58 -10 70 -10 97 5 12 7 37 14 55 16 18 2 34 9 36 15 2 6 10 11 18 11
7 0 16 11 20 24 4 17 11 23 22 19 10 -4 13 -2 8 5 -4 8 0 12 11 12 16 1 16 2
2 13 -30 22 -6 83 28 70 12 -5 18 8 14 30 0 4 3 7 9 7 17 0 11 28 -7 39 -17 9
-17 10 0 28 21 24 21 28 1 48 -9 8 -18 34 -20 56 -3 33 -13 49 -55 90 -56 55
-104 83 -121 73 -7 -5 -8 -3 -3 6 6 10 3 12 -11 8 -11 -3 -25 0 -31 6 -28 26
-39 32 -62 32 -13 0 -25 -6 -28 -12z"/>
<path d="M7073 10530 c-27 -27 -57 -95 -69 -155 -2 -11 -6 -30 -8 -43 -7 -35
37 -176 68 -216 l27 -36 2603 0 c2348 0 2606 2 2634 16 18 8 32 21 32 29 0 7
6 18 14 24 7 6 23 46 36 88 23 77 23 78 5 153 -18 74 -37 119 -64 153 -13 16
-151 17 -2631 17 l-2616 0 -31 -30z"/>
<path d="M7028 9950 c-38 -11 -133 -77 -163 -111 -13 -17 -43 -67 -65 -112
-57 -115 -53 -129 60 -212 48 -35 101 -76 116 -90 16 -15 43 -34 59 -43 17 -8
35 -21 40 -27 6 -7 103 -80 216 -163 113 -82 219 -162 235 -177 16 -15 41 -33
55 -40 14 -8 39 -26 56 -41 17 -15 51 -41 76 -58 90 -62 492 -361 517 -384 14
-13 39 -31 55 -40 17 -8 35 -21 40 -27 6 -7 78 -63 162 -123 83 -61 164 -123
180 -138 15 -14 42 -33 58 -42 17 -8 35 -21 40 -27 13 -16 193 -148 225 -165
14 -7 30 -19 35 -26 6 -6 78 -62 162 -122 83 -61 164 -123 180 -138 15 -14 42
-33 58 -42 17 -8 35 -21 40 -27 6 -7 104 -82 220 -166 115 -85 221 -165 235
-178 14 -12 39 -30 55 -39 17 -8 35 -21 40 -27 6 -7 112 -87 236 -178 125 -91
240 -178 255 -192 16 -15 41 -33 56 -41 15 -8 40 -26 55 -40 15 -14 42 -33 58
-42 17 -8 35 -21 40 -27 6 -7 78 -63 162 -123 83 -61 164 -123 180 -138 15
-14 42 -33 58 -42 17 -8 35 -21 40 -28 6 -6 137 -105 292 -218 155 -113 294
-217 310 -232 15 -14 42 -33 58 -42 17 -8 35 -21 40 -27 30 -37 129 -23 212
29 67 42 86 67 106 142 35 127 24 170 -62 233 -37 27 -81 61 -97 76 -16 15
-42 34 -59 43 -16 8 -34 21 -40 27 -5 7 -78 63 -162 123 -83 61 -164 123 -180
138 -15 14 -40 32 -55 40 -15 8 -40 26 -55 40 -15 14 -41 33 -58 41 -16 8 -43
28 -60 43 -16 15 -49 41 -71 56 -89 62 -373 274 -400 299 -16 15 -41 33 -56
41 -15 8 -40 26 -55 40 -15 14 -41 33 -58 42 -16 8 -34 21 -40 27 -5 7 -78 63
-162 123 -83 61 -164 123 -180 138 -15 14 -41 33 -58 42 -16 8 -34 21 -40 28
-5 6 -104 81 -220 165 -280 204 -294 214 -339 252 -22 17 -58 46 -81 62 -117
83 -376 277 -401 300 -16 15 -41 33 -56 41 -15 8 -40 26 -55 40 -15 14 -41 33
-58 42 -16 8 -34 21 -40 27 -5 7 -112 87 -236 178 -125 91 -240 178 -255 192
-16 15 -42 34 -59 43 -16 8 -34 21 -40 27 -5 7 -95 75 -200 150 -104 76 -203
150 -220 166 -16 15 -49 40 -71 55 -104 72 -635 466 -664 493 -18 16 -46 35
-62 42 -15 6 -28 15 -28 19 0 7 -72 61 -81 59 -2 0 -16 -4 -31 -9z"/>
<path d="M6089 9495 c-63 -17 -104 -40 -128 -71 l-21 -27 0 -1419 c0 -1597 -7
-1466 77 -1508 44 -22 120 -43 153 -42 40 1 118 24 142 42 15 11 32 20 37 20
5 0 23 12 40 26 l31 26 0 1419 c0 1574 5 1456 -67 1499 -79 46 -175 59 -264
35z"/>
<path d="M6036 6251 c-3 -5 -15 -7 -25 -4 -11 3 -30 -2 -43 -11 -12 -9 -27
-16 -33 -16 -5 0 -3 5 5 10 8 5 11 10 6 10 -5 0 -18 -7 -28 -17 -13 -11 -18
-12 -18 -3 0 9 -3 10 -14 1 -8 -6 -18 -11 -22 -10 -5 1 -12 0 -16 -1 -5 -1
-14 -3 -20 -4 -7 -1 -12 -8 -10 -16 3 -12 1 -13 -9 -2 -17 16 -29 15 -29 -3 0
-8 -5 -15 -11 -15 -5 0 -7 6 -3 13 5 8 2 8 -9 -2 -9 -7 -17 -10 -17 -5 0 5 -5
1 -11 -8 -5 -9 -16 -15 -23 -12 -8 3 -17 0 -21 -5 -3 -6 -11 -9 -16 -6 -5 4
-9 -2 -9 -12 0 -15 -2 -16 -10 -3 -7 11 -10 11 -10 2 0 -7 -4 -10 -10 -7 -5 3
-10 1 -10 -4 0 -6 -6 -10 -12 -8 -7 1 -12 -3 -11 -10 2 -8 -4 -10 -14 -6 -12
5 -14 3 -8 -7 6 -10 4 -12 -8 -7 -11 4 -18 -1 -23 -15 -4 -15 -8 -17 -14 -8
-6 9 -10 6 -15 -10 -6 -18 -9 -20 -16 -9 -6 10 -9 8 -9 -10 0 -18 -3 -21 -13
-12 -16 13 -27 5 -27 -20 0 -13 -6 -16 -22 -12 -19 4 -20 3 -8 -6 11 -8 11
-11 2 -11 -7 0 -29 -16 -49 -35 -19 -19 -40 -33 -46 -32 -6 1 -12 -4 -13 -10
-1 -7 -2 -17 -3 -22 0 -5 -17 -18 -36 -30 -24 -14 -33 -25 -29 -36 5 -11 0
-18 -14 -22 -13 -3 -19 -10 -15 -19 3 -8 -1 -14 -11 -14 -9 0 -16 -5 -16 -11
0 -5 5 -7 11 -3 6 3 3 -5 -6 -20 -10 -14 -25 -26 -34 -26 -12 0 -13 -2 -3 -9
8 -4 13 -11 13 -15 -2 -11 -41 -46 -52 -46 -5 0 -7 -4 -4 -10 3 -5 0 -10 -7
-10 -9 0 -9 -3 2 -10 13 -8 13 -10 -2 -10 -11 0 -16 -6 -13 -20 2 -11 0 -20
-5 -20 -5 0 -7 -7 -4 -15 4 -10 0 -15 -12 -15 -9 0 -14 -3 -11 -7 4 -3 2 -12
-4 -20 -8 -9 -8 -13 -1 -13 14 0 -6 -62 -23 -72 -7 -4 -10 -20 -8 -35 4 -22 2
-25 -6 -13 -13 19 -14 14 -2 -27 8 -26 6 -35 -10 -49 -21 -19 -27 -43 -6 -26
9 8 12 5 12 -13 0 -13 -2 -23 -5 -23 -18 1 -21 -4 -11 -16 9 -11 9 -16 0 -22
-8 -4 -9 -3 -5 4 4 7 2 12 -3 12 -6 0 -11 -9 -11 -21 0 -11 4 -18 9 -14 6 3 8
-11 4 -37 -3 -24 -6 -50 -6 -58 0 -8 3 -34 6 -58 4 -26 2 -40 -4 -37 -5 4 -9
-3 -9 -14 0 -12 5 -21 11 -21 5 0 7 5 3 12 -4 7 -3 8 5 4 9 -6 9 -11 0 -22
-10 -12 -7 -17 11 -16 3 0 5 -10 5 -23 0 -18 -3 -21 -12 -13 -21 17 -15 -7 6
-26 16 -14 18 -23 10 -49 -12 -41 -11 -46 2 -27 8 12 10 9 6 -13 -2 -15 1 -31
8 -35 17 -10 37 -72 23 -72 -7 0 -7 -4 1 -13 6 -8 8 -17 4 -20 -3 -4 2 -7 11
-7 12 0 16 -5 12 -15 -3 -8 -1 -15 4 -15 5 0 7 -9 5 -20 -3 -14 2 -20 13 -20
15 0 15 -2 2 -10 -11 -7 -11 -10 -2 -10 7 0 10 -4 7 -10 -3 -5 -1 -10 4 -10
11 0 50 -35 52 -46 0 -4 -5 -11 -13 -15 -10 -7 -9 -9 3 -9 9 0 24 -12 34 -26
9 -15 12 -23 6 -20 -6 4 -11 2 -11 -3 0 -6 7 -11 16 -11 10 0 14 -6 11 -14 -4
-9 2 -16 15 -19 14 -4 19 -11 14 -22 -4 -11 5 -22 29 -36 19 -12 36 -25 36
-30 1 -5 2 -15 3 -21 0 -7 6 -13 11 -13 19 -1 62 -36 73 -60 7 -14 20 -25 31
-25 11 0 21 -9 24 -22 5 -18 8 -19 21 -8 14 11 16 9 16 -11 0 -18 3 -20 9 -10
7 11 10 9 16 -9 6 -18 9 -20 16 -9 7 11 10 9 15 -8 4 -14 11 -20 22 -16 11 5
13 3 7 -7 -6 -10 -4 -12 8 -7 10 4 16 2 14 -6 -1 -7 4 -11 11 -9 6 1 12 -3 12
-9 0 -5 5 -7 10 -4 6 3 10 1 10 -5 0 -6 5 -8 10 -5 6 3 10 1 10 -4 0 -6 3 -10
8 -9 4 1 17 -3 28 -10 12 -6 24 -8 28 -5 3 3 6 1 6 -6 0 -7 4 -10 9 -6 5 3 13
0 17 -6 4 -8 9 -7 15 2 7 11 9 10 9 -5 0 -12 5 -16 15 -13 8 4 17 2 20 -4 4
-5 10 -7 15 -4 5 3 11 1 15 -5 4 -6 11 -8 16 -4 5 3 16 0 24 -6 12 -10 15 -10
15 0 0 9 5 8 18 -3 10 -10 23 -17 28 -17 5 0 2 5 -6 10 -8 5 -10 10 -5 10 6 0
21 -7 33 -16 13 -9 32 -14 43 -11 10 3 22 1 25 -4 8 -13 78 -11 93 4 11 10 13
10 7 0 -5 -10 6 -13 43 -13 30 0 51 5 54 13 4 9 6 9 6 0 1 -20 71 -16 94 5 11
9 17 11 13 5 -9 -16 30 -18 39 -3 4 6 15 8 25 5 10 -3 25 1 33 10 18 17 31 20
21 4 -4 -8 -1 -8 12 -1 11 6 22 10 27 11 4 1 8 1 10 2 1 0 15 3 31 5 16 3 39
10 50 17 12 6 24 10 29 9 4 -1 7 2 7 8 0 6 3 9 8 9 19 -3 33 2 27 10 -3 6 4 8
16 6 16 -3 19 0 15 12 -5 13 -4 14 9 3 11 -9 15 -9 15 -1 0 7 5 9 10 6 6 -3
10 -1 10 4 0 6 6 10 13 9 6 -2 11 2 10 9 -2 8 4 10 14 6 12 -5 14 -3 8 7 -6
10 -4 12 8 7 10 -3 17 -3 17 2 0 5 10 11 23 15 18 5 20 8 7 16 -12 8 -10 10
10 8 19 -2 25 2 24 15 -2 14 1 15 12 6 13 -10 18 -6 15 14 0 4 4 7 10 7 5 0 8
4 5 8 -3 5 4 8 14 8 11 -1 18 2 17 6 -1 4 8 15 21 23 12 9 19 21 16 27 -5 7
-2 8 6 3 7 -4 16 -2 21 6 4 8 14 14 21 14 7 0 12 9 10 19 -2 11 1 15 7 11 6
-3 11 -1 11 5 0 6 7 18 15 26 8 9 15 12 15 8 0 -3 7 -1 15 6 12 10 13 16 3 29
-7 9 -9 13 -4 9 13 -11 46 10 40 25 -6 16 39 83 54 80 6 -2 9 4 6 12 -8 19 14
47 29 38 6 -3 7 -1 3 5 -4 7 -2 12 4 12 6 0 8 5 5 10 -3 6 -1 10 5 10 6 0 8 5
5 10 -4 6 -11 7 -17 4 -7 -4 -8 -2 -4 4 4 6 13 9 21 5 14 -5 21 17 16 55 -1 6
5 12 14 12 9 0 14 4 10 9 -3 5 -2 12 3 15 5 3 7 18 4 34 -2 17 1 33 9 37 8 6
10 4 4 -5 -5 -9 -4 -11 4 -6 6 4 9 11 6 16 -3 5 -1 11 4 15 6 3 8 12 4 20 -3
8 0 15 6 15 6 0 11 5 11 11 0 5 -5 7 -11 3 -6 -3 -3 6 7 22 14 22 15 26 3 17
-13 -10 -16 -10 -16 2 0 8 4 15 9 15 5 0 6 10 3 23 -5 17 -4 19 4 7 12 -17 12
-16 16 20 2 14 6 40 10 59 6 23 5 32 -2 28 -6 -4 -14 0 -17 9 -5 12 -2 15 11
10 14 -6 15 -4 6 4 -7 8 -8 22 -3 41 5 16 5 42 0 58 -5 19 -4 33 3 41 9 8 8
10 -6 4 -13 -5 -16 -2 -11 10 3 9 11 13 17 9 7 -4 8 5 2 28 -4 19 -8 45 -10
59 -4 36 -4 37 -16 20 -8 -12 -9 -10 -4 8 3 12 2 22 -3 22 -5 0 -9 7 -9 15 0
12 3 12 16 2 12 -9 11 -5 -3 17 -10 16 -13 25 -7 22 6 -4 11 -2 11 3 0 6 -5
11 -11 11 -6 0 -9 7 -6 15 4 8 2 17 -4 20 -5 4 -7 10 -4 15 3 5 0 12 -6 16 -8
5 -9 3 -4 -6 6 -9 4 -11 -4 -5 -8 4 -11 20 -9 37 3 16 1 31 -4 34 -5 3 -6 10
-3 15 4 5 -1 9 -10 9 -9 0 -15 6 -14 13 5 37 -2 59 -16 54 -8 -4 -17 -1 -21 5
-4 6 -3 8 4 4 6 -3 13 -2 17 4 3 5 1 10 -5 10 -6 0 -8 5 -5 10 3 6 1 10 -5 10
-6 0 -8 5 -4 12 4 6 3 8 -3 5 -15 -9 -37 19 -29 38 3 8 0 14 -6 12 -15 -3 -60
64 -54 80 6 15 -27 36 -40 25 -5 -4 -3 0 4 9 10 13 9 19 -3 29 -8 7 -15 9 -15
6 0 -4 -7 -1 -15 8 -8 8 -15 20 -15 26 0 6 -5 8 -11 5 -6 -4 -9 0 -7 11 2 10
-3 19 -10 19 -7 0 -17 6 -21 14 -5 7 -14 10 -20 7 -7 -5 -10 -2 -9 6 2 7 -3
12 -10 10 -8 -1 -11 2 -7 8 3 5 1 10 -4 10 -6 0 -11 7 -11 15 0 8 -7 15 -16
15 -9 0 -12 -5 -8 -12 4 -7 3 -8 -5 -4 -6 4 -9 12 -6 17 4 5 1 9 -4 9 -6 0
-10 3 -10 8 3 19 -2 23 -15 13 -11 -9 -14 -8 -12 4 0 9 -12 23 -29 33 -16 9
-31 20 -33 24 -2 4 -10 4 -19 1 -12 -5 -14 -3 -8 7 6 10 4 12 -8 7 -10 -4 -16
-2 -14 6 1 7 -4 11 -10 9 -7 -1 -13 3 -13 9 0 5 -4 8 -9 5 -5 -4 -12 0 -14 6
-4 10 -6 10 -6 1 -1 -7 -5 -13 -11 -13 -5 0 -7 7 -4 15 4 10 0 13 -15 10 -12
-2 -19 0 -16 6 6 8 -8 13 -27 10 -5 0 -8 3 -8 8 0 6 -9 8 -20 6 -11 -2 -18 0
-15 5 5 9 -16 17 -56 23 -8 2 -20 6 -26 10 -7 5 -13 6 -13 2 0 -3 -9 -1 -20 5
-17 9 -19 8 -13 -7 5 -14 1 -13 -16 5 -14 14 -29 21 -41 17 -10 -3 -21 -1 -25
5 -3 5 -15 10 -26 10 -11 0 -18 -4 -14 -9 3 -5 0 -13 -7 -17 -7 -4 -10 -4 -6
1 4 4 3 14 -3 22 -14 17 -86 17 -92 1 -4 -10 -6 -10 -6 0 -1 8 -18 12 -52 12
-37 0 -48 -3 -43 -12 6 -10 4 -10 -7 0 -15 14 -85 16 -93 3z m274 -64 c71 -5
222 -35 230 -45 3 -4 14 -9 25 -10 34 -6 180 -80 251 -128 168 -111 301 -262
393 -449 192 -386 148 -828 -116 -1180 -95 -126 -195 -211 -346 -294 -94 -52
-154 -75 -267 -106 -112 -31 -173 -38 -305 -38 -441 2 -838 253 -1019 645 -58
124 -68 154 -92 288 -30 169 -13 399 41 550 88 243 248 450 453 583 106 68
122 77 197 105 28 10 59 23 70 27 11 5 22 9 25 10 147 44 269 55 460 42z"/>
<path d="M6086 5693 c-2 -3 -20 -6 -39 -8 -19 -2 -49 -10 -66 -19 -28 -15 -30
-15 -24 0 5 14 3 14 -27 -1 -43 -22 -84 -30 -74 -14 4 8 3 9 -5 5 -6 -4 -9
-12 -5 -17 3 -6 0 -9 -7 -7 -8 1 -16 -2 -17 -7 -7 -21 -26 -36 -38 -31 -8 3
-13 0 -11 -6 1 -7 -3 -12 -9 -13 -9 0 -87 -68 -135 -119 -11 -11 -19 -30 -19
-42 0 -13 -13 -33 -31 -48 -17 -14 -28 -30 -24 -36 4 -6 -1 -7 -12 -3 -16 6
-16 4 2 -17 l20 -23 -25 13 -25 13 19 -22 c13 -14 15 -21 6 -21 -7 0 -11 -3
-8 -6 4 -3 0 -21 -8 -40 -16 -38 -6 -44 21 -14 34 38 34 20 -1 -31 -37 -56
-38 -58 -25 -78 6 -10 5 -24 -4 -42 -14 -25 -13 -27 5 -22 16 4 20 0 21 -18 3
-92 22 -179 40 -179 7 0 68 -106 74 -130 9 -30 39 -82 50 -87 8 -3 15 -14 15
-24 0 -15 7 -19 31 -19 16 0 28 -3 25 -8 -5 -8 22 -49 29 -44 13 6 25 0 25
-13 0 -8 9 -15 20 -15 14 0 20 -7 20 -21 0 -19 4 -21 39 -16 28 3 48 -1 70
-14 17 -10 31 -17 31 -15 0 3 13 1 30 -4 18 -5 32 -5 36 1 3 5 38 7 82 3 58
-4 88 -2 121 10 51 19 54 19 47 7 -3 -5 1 -12 10 -15 16 -6 84 29 84 43 0 10
84 43 96 39 15 -4 74 35 74 49 0 7 -5 13 -11 13 -21 0 11 28 56 50 75 37 110
71 107 105 -2 25 4 34 34 53 35 23 35 24 18 43 -19 21 -6 26 16 7 12 -11 12
-10 0 5 -8 11 -10 21 -4 25 5 4 10 16 12 27 1 11 4 38 7 59 3 22 10 43 16 47
7 4 3 12 -12 22 -20 14 -21 18 -8 34 8 10 20 23 27 29 11 8 11 12 -2 23 -10 8
-12 19 -7 34 4 12 6 30 4 39 -5 19 -37 33 -54 22 -8 -4 -8 0 0 15 7 11 16 21
21 21 6 0 10 7 10 15 0 9 -9 15 -22 15 -19 0 -20 2 -8 10 13 8 13 10 1 10 -12
0 -12 3 -3 12 17 17 15 25 -9 31 -15 4 -20 11 -16 21 4 10 1 16 -9 16 -16 0
-34 38 -27 57 3 7 -8 13 -29 15 -23 2 -32 8 -30 19 1 9 -9 21 -24 28 -21 9
-24 15 -16 23 18 18 14 28 -8 28 -11 0 -24 8 -27 18 -4 9 -13 23 -20 30 -7 7
-13 20 -13 28 0 8 -5 12 -10 9 -6 -4 -25 3 -44 14 -35 22 -91 28 -101 11 -8
-13 -25 -13 -25 1 0 5 4 8 8 5 4 -2 13 4 20 15 10 16 9 19 -5 19 -10 0 -33 -4
-50 -9 -21 -6 -55 -6 -95 1 -71 12 -165 18 -172 11z"/>
<path d="M13116 6244 c-22 -12 -30 -13 -36 -4 -6 9 -13 9 -28 1 -11 -6 -28 -8
-38 -4 -11 4 -15 3 -11 -4 4 -6 -1 -10 -11 -9 -9 0 -16 -5 -14 -12 1 -8 -2
-11 -8 -7 -6 3 -7 11 -4 17 4 5 -4 4 -17 -3 -13 -7 -25 -12 -26 -11 -2 1 -4 2
-5 1 -2 0 -12 -2 -22 -4 -53 -10 -66 -16 -60 -28 4 -7 4 -9 -1 -5 -4 4 -15 2
-23 -5 -12 -9 -14 -9 -8 0 4 7 -6 5 -23 -4 -16 -10 -28 -20 -26 -24 2 -3 -2
-6 -10 -6 -8 0 -12 4 -9 9 3 4 -2 5 -10 2 -9 -3 -13 -10 -10 -15 3 -5 -2 -6
-10 -3 -9 3 -16 1 -16 -6 0 -6 -4 -8 -10 -5 -5 3 -10 1 -10 -6 0 -7 -3 -9 -6
-6 -4 4 -15 -3 -25 -14 -10 -12 -23 -18 -28 -14 -6 3 -11 -1 -11 -9 0 -10 -6
-13 -15 -10 -9 4 -15 0 -15 -10 0 -10 -5 -13 -17 -9 -13 5 -15 2 -10 -11 6
-15 3 -17 -12 -13 -13 3 -22 -3 -30 -20 -7 -15 -17 -23 -25 -20 -17 7 -36 -12
-36 -35 0 -10 -7 -18 -17 -18 -14 0 -15 -2 -5 -9 10 -6 7 -10 -12 -15 -14 -3
-26 -13 -26 -21 0 -8 -8 -15 -18 -15 -24 0 -42 -19 -35 -36 3 -8 0 -14 -7 -14
-6 0 -8 -5 -4 -12 4 -7 3 -8 -4 -4 -19 12 -35 -3 -21 -20 9 -11 7 -14 -12 -15
-13 0 -19 -3 -12 -5 15 -7 5 -34 -12 -34 -7 0 -12 -8 -11 -17 0 -9 -10 -23
-24 -30 -14 -7 -19 -13 -12 -13 6 0 12 -4 12 -10 0 -5 -7 -7 -15 -4 -11 5 -13
2 -8 -12 4 -12 3 -15 -5 -10 -8 5 -10 2 -6 -8 3 -9 1 -16 -6 -16 -6 0 -9 -4
-6 -9 3 -5 -2 -12 -11 -15 -15 -6 -15 -8 -3 -16 13 -8 12 -10 -3 -10 -10 0
-15 -4 -12 -10 3 -5 0 -10 -7 -10 -11 0 -10 -2 0 -9 11 -7 11 -9 -1 -14 -11
-4 -14 -15 -11 -35 4 -23 0 -34 -18 -47 -14 -11 -16 -15 -6 -12 21 7 13 -19
-8 -27 -11 -4 -12 -10 -4 -25 7 -14 7 -22 -2 -27 -7 -5 -8 -3 -3 6 5 9 4 11
-4 6 -6 -4 -9 -12 -5 -17 3 -5 1 -16 -6 -24 -9 -10 -9 -19 0 -36 7 -12 8 -19
2 -15 -14 9 -25 -25 -12 -38 8 -8 9 -5 5 9 -6 16 -5 17 4 5 7 -10 6 -19 -4
-30 -18 -20 -33 -86 -17 -76 6 3 13 2 16 -3 4 -5 2 -12 -4 -16 -5 -3 -10 -24
-10 -45 0 -21 5 -42 10 -45 6 -4 8 -11 4 -16 -3 -5 -10 -6 -16 -3 -16 10 -1
-56 17 -76 10 -11 11 -20 4 -30 -9 -12 -10 -11 -4 5 4 14 3 17 -5 9 -13 -13
-2 -47 12 -38 6 4 5 -3 -2 -15 -9 -17 -9 -26 0 -36 7 -8 9 -19 6 -24 -4 -5 -1
-13 5 -17 8 -5 9 -3 4 6 -5 9 -4 11 3 6 9 -5 9 -13 2 -27 -8 -15 -7 -21 4 -25
21 -8 29 -34 8 -27 -10 3 -8 -1 6 -12 18 -13 22 -24 18 -47 -3 -20 0 -31 11
-35 12 -5 12 -7 1 -14 -10 -7 -11 -9 0 -9 7 0 10 -4 7 -10 -3 -5 2 -10 12 -10
15 0 16 -2 3 -10 -12 -8 -12 -10 3 -16 9 -3 14 -10 11 -15 -3 -5 0 -9 6 -9 7
0 9 -7 6 -16 -4 -10 -2 -13 6 -8 8 5 9 2 5 -10 -5 -14 -3 -17 8 -12 8 3 15 1
15 -4 0 -6 -6 -10 -12 -10 -7 0 -2 -6 12 -13 14 -7 24 -21 24 -30 -1 -9 4 -17
11 -17 17 0 27 -27 12 -34 -7 -2 -1 -5 12 -5 19 -1 21 -4 12 -15 -14 -17 2
-32 21 -20 7 4 8 3 4 -4 -4 -7 -2 -12 4 -12 7 0 10 -6 7 -14 -7 -17 11 -36 35
-36 10 0 18 -7 18 -15 0 -8 12 -18 26 -21 19 -5 22 -9 12 -15 -10 -7 -9 -9 5
-9 10 0 17 -8 17 -18 0 -23 19 -42 36 -35 8 3 18 -5 25 -20 8 -17 17 -23 30
-20 15 4 18 2 12 -13 -5 -13 -3 -16 10 -11 12 4 17 1 17 -9 0 -10 6 -14 15
-10 9 3 15 0 15 -10 0 -8 5 -12 11 -9 5 4 18 -2 28 -14 10 -11 21 -18 25 -14
3 3 6 1 6 -6 0 -7 5 -9 10 -6 6 3 10 1 10 -5 0 -7 7 -9 16 -6 8 3 13 2 10 -3
-3 -5 1 -12 10 -15 8 -3 13 -2 10 2 -3 5 1 9 9 9 8 0 12 -3 10 -6 -2 -4 10
-14 26 -24 17 -9 27 -11 23 -4 -6 9 -4 9 8 0 8 -7 19 -9 23 -5 5 4 5 2 1 -5
-6 -12 11 -20 55 -26 8 -2 20 -6 27 -10 6 -5 12 -6 12 -2 0 3 10 1 21 -6 13
-7 19 -7 15 -1 -3 6 -1 14 5 18 8 4 9 3 5 -4 -8 -13 30 -36 44 -27 5 3 20 1
32 -6 16 -9 23 -9 26 -1 2 8 16 6 43 -4 21 -9 47 -13 56 -9 28 11 123 11 126
0 3 -9 23 -4 96 23 10 4 12 1 6 -8 -6 -10 -4 -11 11 -5 10 4 29 8 41 9 12 1
24 4 28 8 4 4 14 4 23 1 10 -4 13 -2 8 5 -5 8 -2 10 8 6 9 -3 24 -3 34 1 9 5
28 10 42 12 14 2 35 11 48 19 12 8 22 12 22 9 0 -4 10 1 22 9 12 9 29 16 37
16 7 0 20 8 28 18 8 9 12 11 8 5 -4 -9 -1 -11 9 -7 9 3 16 10 16 15 0 5 3 8 8
8 20 -3 32 3 32 17 0 8 4 13 9 9 6 -3 14 3 20 12 6 11 11 13 11 5 0 -11 31 4
70 35 2 2 -2 9 -10 14 -11 8 -8 10 13 6 22 -3 28 0 33 18 3 14 12 22 22 20 23
-3 42 13 42 37 0 14 5 18 16 14 11 -4 15 -2 11 8 -3 8 2 16 14 19 10 3 19 12
19 21 0 9 8 16 19 16 23 0 46 25 32 35 -7 4 -7 12 1 25 9 14 14 16 20 7 5 -9
10 -9 20 1 10 10 10 15 -2 22 -12 8 -11 10 6 10 15 0 20 6 20 23 -1 12 4 21
11 20 7 -2 10 4 7 12 -5 11 -2 13 12 8 12 -4 15 -3 10 5 -4 7 0 15 9 18 13 6
14 8 3 15 -10 7 -10 9 3 9 12 0 15 7 12 28 -3 23 -2 24 6 7 8 -17 10 -18 10
-2 1 9 6 17 13 17 6 0 8 3 5 7 -4 3 -1 13 6 21 10 13 9 15 -6 9 -11 -4 -16 -3
-12 3 3 6 13 10 21 10 8 0 12 5 9 10 -3 6 0 10 7 10 10 0 10 2 -1 9 -10 7 -11
9 -1 13 7 2 15 14 17 27 2 15 -1 20 -9 15 -7 -4 -8 -3 -4 4 4 7 15 12 24 12
13 0 14 2 4 9 -11 6 -10 10 3 15 13 5 15 9 6 20 -9 10 -8 15 4 20 9 3 13 11
10 16 -4 6 -2 16 3 23 15 19 23 65 12 72 -12 8 -13 45 -1 45 5 0 7 -10 5 -22
-4 -21 -4 -22 5 -3 14 29 13 45 -2 39 -8 -3 -13 4 -14 18 -2 17 0 19 7 8 7
-11 11 -9 19 13 15 38 14 57 -2 57 -8 0 -14 7 -14 15 0 8 4 15 9 15 4 0 8 14
8 30 0 17 -4 30 -8 30 -5 0 -9 7 -9 15 0 8 6 15 14 15 16 0 17 19 2 57 -8 22
-12 24 -19 13 -7 -11 -9 -9 -7 8 1 14 6 21 14 18 15 -6 16 10 2 39 -9 19 -9
18 -5 -2 2 -13 0 -23 -5 -23 -12 0 -11 37 1 45 11 7 3 53 -12 72 -5 7 -7 17
-3 23 3 5 -1 13 -10 16 -12 5 -13 10 -4 20 9 11 7 15 -6 20 -13 5 -14 9 -3 15
10 7 9 9 -4 9 -9 0 -20 5 -24 12 -4 7 -3 8 4 4 8 -5 11 0 9 14 -2 12 -9 25
-16 30 -11 6 -11 9 0 13 11 4 11 6 1 6 -7 1 -10 6 -7 11 3 6 -1 10 -9 10 -8 0
-18 4 -21 10 -4 6 1 7 12 3 15 -6 16 -4 6 9 -7 8 -10 18 -6 21 3 4 1 7 -5 7
-7 0 -12 8 -13 18 0 15 -2 14 -10 -3 -8 -17 -9 -16 -6 8 3 20 0 27 -12 27 -13
0 -13 2 -3 9 11 7 10 9 -3 15 -9 3 -13 11 -9 18 5 8 2 9 -10 5 -14 -5 -17 -3
-12 8 3 8 0 14 -7 12 -7 -1 -12 8 -11 21 0 16 -5 22 -20 22 -17 0 -18 2 -6 10
12 7 12 12 2 22 -10 10 -15 10 -20 1 -6 -9 -11 -7 -20 7 -8 13 -8 21 -1 25 14
9 -9 35 -31 35 -10 0 -20 9 -23 20 -3 11 -12 20 -21 20 -10 0 -13 6 -10 15 5
11 2 13 -10 9 -11 -4 -16 0 -16 14 0 25 -23 45 -36 32 -7 -7 -17 -3 -30 11
-10 13 -13 19 -7 15 9 -5 11 -2 7 9 -4 10 -10 12 -18 6 -7 -6 -17 -6 -26 -1
-10 7 -11 10 -2 10 21 0 13 14 -23 38 -32 20 -35 20 -36 5 0 -14 -3 -12 -10 5
-5 13 -13 20 -19 17 -5 -3 -10 0 -10 8 0 19 -27 30 -34 14 -2 -7 -5 -5 -5 4
-1 9 -8 20 -17 23 -8 3 -13 2 -10 -3 11 -18 -36 2 -62 26 -14 13 -27 21 -30
18 -3 -3 -11 0 -18 6 -18 15 -74 29 -74 18 0 -5 -5 -9 -11 -9 -5 0 -7 5 -4 10
7 12 -9 19 -51 25 -16 2 -29 5 -29 6 0 1 -11 3 -25 4 -14 1 -34 6 -44 10 -15
6 -17 5 -11 -5 9 -14 -3 -12 -64 12 -21 8 -35 9 -38 3 -3 -11 -110 -12 -120
-1 -10 10 -36 6 -67 -10z m269 -58 c70 -7 163 -25 194 -38 31 -14 29 -13 66
-23 116 -31 387 -220 468 -325 57 -73 136 -197 165 -258 52 -106 102 -278 102
-347 0 -20 3 -34 8 -32 4 3 7 -44 7 -103 0 -59 -3 -106 -7 -103 -5 2 -8 -12
-8 -32 0 -69 -51 -241 -102 -347 -109 -225 -255 -377 -481 -502 -122 -68 -297
-123 -422 -132 -38 -3 -80 -7 -93 -10 -70 -14 -335 33 -469 84 -190 73 -379
222 -495 391 -28 42 -57 79 -62 83 -7 5 -7 8 -1 8 6 0 6 3 -1 8 -5 4 -20 32
-33 62 -13 30 -30 71 -38 90 -28 64 -31 75 -43 135 -23 111 -25 130 -25 265 0
135 2 154 25 265 12 60 15 71 43 135 8 19 25 60 38 90 13 30 28 58 33 62 7 5
7 8 1 8 -6 0 -6 3 1 8 5 4 33 41 62 82 83 121 234 262 347 324 17 9 44 25 60
34 17 10 50 25 75 35 25 9 59 22 75 28 134 53 324 74 510 55z"/>
<path d="M13146 5693 c-2 -3 -20 -6 -39 -8 -19 -2 -49 -10 -66 -19 -28 -15
-30 -15 -24 0 5 14 3 14 -27 -1 -43 -22 -84 -30 -74 -14 4 8 3 9 -5 5 -6 -4
-9 -12 -5 -17 3 -6 0 -9 -7 -7 -8 1 -16 -2 -17 -7 -7 -21 -26 -36 -38 -31 -8
3 -13 0 -11 -6 1 -7 -3 -12 -9 -13 -9 0 -87 -68 -135 -119 -11 -11 -19 -30
-19 -42 0 -13 -13 -33 -31 -48 -17 -14 -28 -30 -24 -36 4 -6 -1 -7 -12 -3 -16
6 -16 4 2 -17 l20 -23 -25 13 -25 13 19 -22 c13 -14 15 -21 6 -21 -7 0 -11 -3
-8 -6 4 -3 0 -21 -8 -40 -16 -38 -6 -44 21 -14 34 38 34 20 -1 -31 -37 -56
-38 -58 -25 -78 6 -10 5 -24 -4 -42 -14 -25 -13 -27 5 -22 16 4 20 0 21 -18 3
-92 22 -179 40 -179 7 0 68 -106 74 -130 9 -30 39 -82 50 -87 8 -3 15 -14 15
-24 0 -15 7 -19 31 -19 16 0 28 -3 25 -8 -5 -8 22 -49 29 -44 13 6 25 0 25
-13 0 -8 9 -15 20 -15 14 0 20 -7 20 -21 0 -19 4 -21 39 -16 28 3 48 -1 70
-14 17 -10 31 -17 31 -15 0 3 13 1 30 -4 18 -5 32 -5 36 1 3 5 38 7 82 3 58
-4 88 -2 121 10 51 19 54 19 47 7 -3 -5 1 -12 10 -15 16 -6 84 29 84 43 0 10
84 43 96 39 15 -4 74 35 74 49 0 7 -5 13 -11 13 -21 0 11 28 56 50 75 37 110
71 107 105 -2 25 4 34 34 53 35 23 35 24 18 43 -19 21 -6 26 16 7 12 -11 12
-10 0 5 -8 11 -10 21 -4 25 5 4 10 16 12 27 1 11 4 38 7 59 3 22 10 43 16 47
7 4 3 12 -12 22 -20 14 -21 18 -8 34 8 10 20 23 27 29 11 8 11 12 -2 23 -10 8
-12 19 -7 34 4 12 6 30 4 39 -5 19 -37 33 -54 22 -8 -4 -8 0 0 15 7 11 16 21
21 21 6 0 10 7 10 15 0 9 -9 15 -22 15 -19 0 -20 2 -8 10 13 8 13 10 1 10 -12
0 -12 3 -3 12 17 17 15 25 -9 31 -15 4 -20 11 -16 21 4 10 1 16 -9 16 -16 0
-34 38 -27 57 3 7 -8 13 -29 15 -23 2 -32 8 -30 19 1 9 -9 21 -24 28 -21 9
-24 15 -16 23 18 18 14 28 -8 28 -11 0 -24 8 -27 18 -4 9 -13 23 -20 30 -7 7
-13 20 -13 28 0 8 -5 12 -10 9 -6 -4 -25 3 -44 14 -35 22 -91 28 -101 11 -8
-13 -25 -13 -25 1 0 5 4 8 8 5 4 -2 13 4 20 15 10 16 9 19 -5 19 -10 0 -33 -4
-50 -9 -21 -6 -55 -6 -95 1 -71 12 -165 18 -172 11z"/>
</g>
</svg>
